<svg width="30" height="30" viewBox="0 0 30 30" fill="none" xmlns="http://www.w3.org/2000/svg">
<circle cx="15.0703" cy="16.4564" r="8.14157" fill="url(#paint0_linear_515_4692)"/>
<rect x="11.4326" y="16.6296" width="7.6219" height="13.1651" rx="3.81095" fill="url(#paint1_linear_515_4692)"/>
<rect x="11.4326" y="24.9444" width="7.6219" height="0.6929" fill="white"/>
<rect x="1.03906" y="5.76288" width="2.0787" height="5.88965" rx="1.03935" transform="rotate(-50.5653 1.03906 5.76288)" fill="url(#paint2_linear_515_4692)"/>
<rect width="2.00209" height="5.67259" rx="1.00105" transform="matrix(-0.635199 -0.772349 -0.772349 0.635199 28.5186 6.39661)" fill="url(#paint3_linear_515_4692)"/>
<rect x="13.8584" width="2.0787" height="5.88965" rx="1.03935" fill="url(#paint4_linear_515_4692)"/>
<rect x="0.0351562" y="17.7533" width="2.0787" height="5.05666" rx="1.03935" transform="rotate(-90.9591 0.0351562 17.7533)" fill="url(#paint5_linear_515_4692)"/>
<rect width="2.00209" height="4.8703" rx="1.00105" transform="matrix(0.0167381 -0.99986 -0.99986 -0.0167381 29.8145 17.9069)" fill="url(#paint6_linear_515_4692)"/>
<defs>
<linearGradient id="paint0_linear_515_4692" x1="7.14261" y1="8.31482" x2="17.049" y2="8.94966" gradientUnits="userSpaceOnUse">
<stop stop-color="#FFB81D"/>
<stop offset="1" stop-color="#FF681D"/>
</linearGradient>
<linearGradient id="paint1_linear_515_4692" x1="10.0468" y1="15.0706" x2="15.3598" y2="14.9487" gradientUnits="userSpaceOnUse">
<stop stop-color="#FFB81D"/>
<stop offset="1" stop-color="#FF681D"/>
</linearGradient>
<linearGradient id="paint2_linear_515_4692" x1="1.06637" y1="5.76288" x2="2.33556" y2="5.79158" gradientUnits="userSpaceOnUse">
<stop stop-color="#B5BD00"/>
<stop offset="1" stop-color="#FFB81D"/>
</linearGradient>
<linearGradient id="paint3_linear_515_4692" x1="0.0263001" y1="3.52245e-08" x2="1.24872" y2="0.0276484" gradientUnits="userSpaceOnUse">
<stop stop-color="#B5BD00"/>
<stop offset="1" stop-color="#FFB81D"/>
</linearGradient>
<linearGradient id="paint4_linear_515_4692" x1="13.8857" y1="3.65723e-08" x2="15.1549" y2="0.0287063" gradientUnits="userSpaceOnUse">
<stop stop-color="#B5BD00"/>
<stop offset="1" stop-color="#FFB81D"/>
</linearGradient>
<linearGradient id="paint5_linear_515_4692" x1="0.0624626" y1="17.7533" x2="1.33142" y2="17.7867" gradientUnits="userSpaceOnUse">
<stop stop-color="#B5BD00"/>
<stop offset="1" stop-color="#FFB81D"/>
</linearGradient>
<linearGradient id="paint6_linear_515_4692" x1="0.0263001" y1="3.02426e-08" x2="1.24849" y2="0.0321971" gradientUnits="userSpaceOnUse">
<stop stop-color="#B5BD00"/>
<stop offset="1" stop-color="#FFB81D"/>
</linearGradient>
</defs>
</svg>
