<svg width="43" height="48" viewBox="0 0 43 48" fill="none" xmlns="http://www.w3.org/2000/svg">
<path d="M23.5807 10.9715H33.2904V39.5932C33.2918 39.7971 33.2521 39.9993 33.1739 40.188C33.0956 40.3767 32.9811 40.548 32.8352 40.6922C32.6894 40.8364 32.5154 40.9505 32.3245 41.0279C32.1337 41.1052 31.9294 41.1444 31.7231 41.1429H1.5673C1.36105 41.1444 1.15669 41.1052 0.96586 41.0279C0.775025 40.9505 0.601024 40.8364 0.455181 40.6922C0.309338 40.548 0.194782 40.3767 0.116534 40.188C0.0382866 39.9993 -0.00143622 39.7971 3.96694e-05 39.5932V1.54976C-0.00143622 1.34584 0.0382866 1.14363 0.116534 0.95495C0.194782 0.766271 0.309338 0.594905 0.455181 0.450709C0.601024 0.306513 0.775025 0.192414 0.96586 0.115051C1.15669 0.0376869 1.36105 -0.00141984 1.5673 3.93814e-05H23.5807V10.9715Z" fill="url(#paint0_linear_515_420)"/>
<path d="M33.2907 10.9714H23.5811V0L33.2907 10.9714Z" fill="url(#paint1_linear_515_420)"/>
<path d="M29.1289 13.7143H4.16113V16.0649H29.1289V13.7143Z" fill="white"/>
<path d="M29.1289 18.8077H4.16113V21.1584H29.1289V18.8077Z" fill="white"/>
<path d="M29.1289 23.9026H4.16113V26.2532H29.1289V23.9026Z" fill="white"/>
<path d="M18.0321 28.996H4.16113V31.3467H18.0321V28.996Z" fill="white"/>
<path opacity="0.4" d="M23.5811 10.9714H33.2907V21.9429L23.5811 10.9714Z" fill="#073E92"/>
<g filter="url(#filter0_d_515_420)">
<path d="M32.0914 44C36.5602 44 40.1828 40.4183 40.1828 36C40.1828 31.5817 36.5602 28 32.0914 28C27.6226 28 24 31.5817 24 36C24 40.4183 27.6226 44 32.0914 44Z" fill="#22B573"/>
</g>
<g clip-path="url(#clip0_515_420)">
<path d="M32 33.25C32.1381 33.25 32.25 33.3619 32.25 33.5V35.75H34.5C34.6381 35.75 34.75 35.8619 34.75 36C34.75 36.1381 34.6381 36.25 34.5 36.25H32.25V38.5C32.25 38.6381 32.1381 38.75 32 38.75C31.8619 38.75 31.75 38.6381 31.75 38.5V36.25H29.5C29.3619 36.25 29.25 36.1381 29.25 36C29.25 35.8619 29.3619 35.75 29.5 35.75H31.75V33.5C31.75 33.3619 31.8619 33.25 32 33.25Z" fill="white"/>
<path fill-rule="evenodd" clip-rule="evenodd" d="M27 36C27 33.2386 29.2386 31 32 31C34.7614 31 37 33.2386 37 36C37 38.7614 34.7614 41 32 41C29.2386 41 27 38.7614 27 36ZM32 31.5C29.5147 31.5 27.5 33.5147 27.5 36C27.5 38.4853 29.5147 40.5 32 40.5C34.4853 40.5 36.5 38.4853 36.5 36C36.5 33.5147 34.4853 31.5 32 31.5Z" fill="white"/>
<path d="M32.0914 44C36.5602 44 40.1828 40.4183 40.1828 36C40.1828 31.5817 36.5602 28 32.0914 28C27.6226 28 24 31.5817 24 36C24 40.4183 27.6226 44 32.0914 44Z" fill="#22B573"/>
<circle cx="32" cy="36" r="4.75" fill="#22B573" stroke="white" stroke-width="0.5"/>
<path d="M32.125 34.375C32.125 34.306 32.069 34.25 32 34.25C31.931 34.25 31.875 34.306 31.875 34.375V35.875H30.375C30.306 35.875 30.25 35.931 30.25 36C30.25 36.069 30.306 36.125 30.375 36.125H31.875V37.625C31.875 37.694 31.931 37.75 32 37.75C32.069 37.75 32.125 37.694 32.125 37.625V36.125H33.625C33.694 36.125 33.75 36.069 33.75 36C33.75 35.931 33.694 35.875 33.625 35.875H32.125V34.375Z" fill="white"/>
</g>
<defs>
<filter id="filter0_d_515_420" x="22" y="26" width="20.1826" height="20" filterUnits="userSpaceOnUse" color-interpolation-filters="sRGB">
<feFlood flood-opacity="0" result="BackgroundImageFix"/>
<feColorMatrix in="SourceAlpha" type="matrix" values="0 0 0 0 0 0 0 0 0 0 0 0 0 0 0 0 0 0 127 0" result="hardAlpha"/>
<feOffset/>
<feGaussianBlur stdDeviation="1"/>
<feColorMatrix type="matrix" values="0 0 0 0 0.00392157 0 0 0 0 0 0 0 0 0 0.00784314 0 0 0 0.302 0"/>
<feBlend mode="normal" in2="BackgroundImageFix" result="effect1_dropShadow_515_420"/>
<feBlend mode="normal" in="SourceGraphic" in2="effect1_dropShadow_515_420" result="shape"/>
</filter>
<linearGradient id="paint0_linear_515_420" x1="0.437312" y1="2.55481e-07" x2="20.7193" y2="1.05168" gradientUnits="userSpaceOnUse">
<stop stop-color="#00BFFF"/>
<stop offset="1" stop-color="#006EFC"/>
</linearGradient>
<linearGradient id="paint1_linear_515_420" x1="23.7086" y1="6.81281e-08" x2="29.6211" y2="0.335318" gradientUnits="userSpaceOnUse">
<stop stop-color="#0033AA"/>
<stop offset="1" stop-color="#0A2240"/>
</linearGradient>
<clipPath id="clip0_515_420">
<rect width="16" height="16" fill="white" transform="translate(23 28)"/>
</clipPath>
</defs>
</svg>
