<svg width="33" height="33" viewBox="0 0 33 33" fill="none" xmlns="http://www.w3.org/2000/svg">
<path d="M8.78086 8.10537C9.15389 8.10537 9.4563 8.40777 9.4563 8.78081V12.8334C9.4563 13.2065 9.15389 13.5089 8.78086 13.5089C8.40782 13.5089 8.10542 13.2065 8.10542 12.8334V8.78081C8.10542 8.40777 8.40782 8.10537 8.78086 8.10537Z" fill="#0062E1"/>
<path d="M8.78086 8.10537C9.15389 8.10537 9.4563 8.40777 9.4563 8.78081V12.8334C9.4563 13.2065 9.15389 13.5089 8.78086 13.5089C8.40782 13.5089 8.10542 13.2065 8.10542 12.8334V8.78081C8.10542 8.40777 8.40782 8.10537 8.78086 8.10537Z" fill="black" fill-opacity="0.45"/>
<path fill-rule="evenodd" clip-rule="evenodd" d="M5.00032 4.09646C5.02214 4.09433 5.04405 4.09326 5.06597 4.09326H16.5484C16.5703 4.09326 16.5923 4.09433 16.6141 4.09646C17.2821 4.1617 17.8976 4.48739 18.3273 5.00304C18.7505 5.51086 18.96 6.16269 18.9125 6.82122V8.79064L27.8534 15.4663C28.4323 15.8975 28.9029 16.4583 29.2268 17.1033C29.5508 17.7486 29.7195 18.4606 29.7195 19.1826V29.044C29.7195 29.417 29.4171 29.7194 29.0441 29.7194C28.671 29.7194 28.3686 29.417 28.3686 29.044V19.1826C28.3686 18.6711 28.2491 18.1666 28.0196 17.7095C27.79 17.2524 27.4568 16.8552 27.0466 16.5497L18.9125 10.4765V21.6285C18.96 22.287 18.7505 22.9388 18.3273 23.4466C17.8976 23.9623 17.2821 24.288 16.6141 24.3532L16.4237 24.207C16.4161 24.202 16.4085 24.1969 16.401 24.1916L10.9299 20.3145C10.9045 20.2965 10.8803 20.2767 10.8576 20.2553C10.6145 20.0265 10.296 19.8949 9.96259 19.8851C9.60148 19.8882 9.25558 20.0316 8.99815 20.2852C8.87639 20.4046 8.77872 20.5481 8.71269 20.7054C8.64667 20.8627 8.61266 21.0315 8.61266 21.2021C8.61266 21.3727 8.64667 21.5416 8.71269 21.6989C8.77872 21.8562 8.87544 21.9987 8.9972 22.1182L9.00229 22.1232L15.4324 28.5669C15.6959 28.8309 15.6955 29.2586 15.4314 29.5221C15.1674 29.7856 14.7397 29.7851 14.4762 29.5211L9.32239 24.3564H5.06597C5.04405 24.3564 5.02214 24.3554 5.00032 24.3532C4.33227 24.288 3.71679 23.9623 3.28709 23.4466C2.8639 22.9388 2.65442 22.287 2.70193 21.6285V6.82122C2.65442 6.16268 2.8639 5.51086 3.28709 5.00304C3.71679 4.48739 4.33228 4.1617 5.00032 4.09646ZM7.9759 23.0055C7.76115 22.7769 7.58875 22.5115 7.46711 22.2217C7.33159 21.8989 7.26178 21.5523 7.26178 21.2021C7.26178 20.852 7.33159 20.5054 7.46711 20.1825C7.60256 19.8599 7.80092 19.5674 8.05063 19.3223C8.56199 18.8188 9.25033 18.5359 9.96796 18.5341L9.9852 18.5343C10.6383 18.5494 11.2634 18.7994 11.7465 19.2375L12.1581 19.5291V5.44414H5.10253C4.79921 5.48123 4.52096 5.63253 4.32486 5.86785C4.12251 6.11067 4.02392 6.4234 4.05043 6.73837C4.05202 6.75721 4.05281 6.77611 4.05281 6.79502V21.6547C4.05281 21.6736 4.05202 21.6925 4.05043 21.7113C4.02392 22.0263 4.12251 22.339 4.32486 22.5818C4.52096 22.8172 4.79921 22.9685 5.10254 23.0055H7.9759ZM14.8598 21.4437L16.8998 22.8894C17.0483 22.8158 17.1814 22.7116 17.2895 22.5818C17.4919 22.339 17.5905 22.0263 17.564 21.7113C17.5624 21.6925 17.5616 21.6736 17.5616 21.6547V6.79502C17.5616 6.77611 17.5624 6.75721 17.564 6.73837C17.5905 6.4234 17.4919 6.11067 17.2895 5.86785C17.0934 5.63253 16.8152 5.48123 16.5119 5.44414H14.8598V21.4437Z" fill="#0062E1"/>
<path fill-rule="evenodd" clip-rule="evenodd" d="M5.00032 4.09646C5.02214 4.09433 5.04405 4.09326 5.06597 4.09326H16.5484C16.5703 4.09326 16.5923 4.09433 16.6141 4.09646C17.2821 4.1617 17.8976 4.48739 18.3273 5.00304C18.7505 5.51086 18.96 6.16269 18.9125 6.82122V8.79064L27.8534 15.4663C28.4323 15.8975 28.9029 16.4583 29.2268 17.1033C29.5508 17.7486 29.7195 18.4606 29.7195 19.1826V29.044C29.7195 29.417 29.4171 29.7194 29.0441 29.7194C28.671 29.7194 28.3686 29.417 28.3686 29.044V19.1826C28.3686 18.6711 28.2491 18.1666 28.0196 17.7095C27.79 17.2524 27.4568 16.8552 27.0466 16.5497L18.9125 10.4765V21.6285C18.96 22.287 18.7505 22.9388 18.3273 23.4466C17.8976 23.9623 17.2821 24.288 16.6141 24.3532L16.4237 24.207C16.4161 24.202 16.4085 24.1969 16.401 24.1916L10.9299 20.3145C10.9045 20.2965 10.8803 20.2767 10.8576 20.2553C10.6145 20.0265 10.296 19.8949 9.96259 19.8851C9.60148 19.8882 9.25558 20.0316 8.99815 20.2852C8.87639 20.4046 8.77872 20.5481 8.71269 20.7054C8.64667 20.8627 8.61266 21.0315 8.61266 21.2021C8.61266 21.3727 8.64667 21.5416 8.71269 21.6989C8.77872 21.8562 8.87544 21.9987 8.9972 22.1182L9.00229 22.1232L15.4324 28.5669C15.6959 28.8309 15.6955 29.2586 15.4314 29.5221C15.1674 29.7856 14.7397 29.7851 14.4762 29.5211L9.32239 24.3564H5.06597C5.04405 24.3564 5.02214 24.3554 5.00032 24.3532C4.33227 24.288 3.71679 23.9623 3.28709 23.4466C2.8639 22.9388 2.65442 22.287 2.70193 21.6285V6.82122C2.65442 6.16268 2.8639 5.51086 3.28709 5.00304C3.71679 4.48739 4.33228 4.1617 5.00032 4.09646ZM7.9759 23.0055C7.76115 22.7769 7.58875 22.5115 7.46711 22.2217C7.33159 21.8989 7.26178 21.5523 7.26178 21.2021C7.26178 20.852 7.33159 20.5054 7.46711 20.1825C7.60256 19.8599 7.80092 19.5674 8.05063 19.3223C8.56199 18.8188 9.25033 18.5359 9.96796 18.5341L9.9852 18.5343C10.6383 18.5494 11.2634 18.7994 11.7465 19.2375L12.1581 19.5291V5.44414H5.10253C4.79921 5.48123 4.52096 5.63253 4.32486 5.86785C4.12251 6.11067 4.02392 6.4234 4.05043 6.73837C4.05202 6.75721 4.05281 6.77611 4.05281 6.79502V21.6547C4.05281 21.6736 4.05202 21.6925 4.05043 21.7113C4.02392 22.0263 4.12251 22.339 4.32486 22.5818C4.52096 22.8172 4.79921 22.9685 5.10254 23.0055H7.9759ZM14.8598 21.4437L16.8998 22.8894C17.0483 22.8158 17.1814 22.7116 17.2895 22.5818C17.4919 22.339 17.5905 22.0263 17.564 21.7113C17.5624 21.6925 17.5616 21.6736 17.5616 21.6547V6.79502C17.5616 6.77611 17.5624 6.75721 17.564 6.73837C17.5905 6.4234 17.4919 6.11067 17.2895 5.86785C17.0934 5.63253 16.8152 5.48123 16.5119 5.44414H14.8598V21.4437Z" fill="black" fill-opacity="0.45"/>
<path d="M16.5484 24.3564C16.5703 24.3564 16.5923 24.3554 16.6141 24.3532L16.5484 24.3564Z" fill="#0062E1"/>
<path d="M16.5484 24.3564C16.5703 24.3564 16.5923 24.3554 16.6141 24.3532L16.5484 24.3564Z" fill="black" fill-opacity="0.45"/>
</svg>
