<svg width="33" height="34" viewBox="0 0 33 34" fill="none" xmlns="http://www.w3.org/2000/svg">
<path d="M9.45615 7.42973C9.45615 7.0567 9.75855 6.75429 10.1316 6.75429H22.2895C22.6625 6.75429 22.9649 7.0567 22.9649 7.42973C22.9649 7.80276 22.6625 8.10517 22.2895 8.10517H10.1316C9.75855 8.10517 9.45615 7.80276 9.45615 7.42973Z" fill="#0062E1"/>
<path d="M9.45615 7.42973C9.45615 7.0567 9.75855 6.75429 10.1316 6.75429H22.2895C22.6625 6.75429 22.9649 7.0567 22.9649 7.42973C22.9649 7.80276 22.6625 8.10517 22.2895 8.10517H10.1316C9.75855 8.10517 9.45615 7.80276 9.45615 7.42973Z" fill="black" fill-opacity="0.45"/>
<path d="M9.45615 10.1315C9.45615 9.75845 9.75855 9.45605 10.1316 9.45605H22.2895C22.6625 9.45605 22.9649 9.75845 22.9649 10.1315C22.9649 10.5045 22.6625 10.8069 22.2895 10.8069H10.1316C9.75855 10.8069 9.45615 10.5045 9.45615 10.1315Z" fill="#0062E1"/>
<path d="M9.45615 10.1315C9.45615 9.75845 9.75855 9.45605 10.1316 9.45605H22.2895C22.6625 9.45605 22.9649 9.75845 22.9649 10.1315C22.9649 10.5045 22.6625 10.8069 22.2895 10.8069H10.1316C9.75855 10.8069 9.45615 10.5045 9.45615 10.1315Z" fill="black" fill-opacity="0.45"/>
<path d="M10.1316 14.8596C9.75855 14.8596 9.45615 15.162 9.45615 15.535C9.45615 15.908 9.75855 16.2104 10.1316 16.2104H18.2369C18.6099 16.2104 18.9123 15.908 18.9123 15.535C18.9123 15.162 18.6099 14.8596 18.2369 14.8596H10.1316Z" fill="#0062E1"/>
<path d="M10.1316 14.8596C9.75855 14.8596 9.45615 15.162 9.45615 15.535C9.45615 15.908 9.75855 16.2104 10.1316 16.2104H18.2369C18.6099 16.2104 18.9123 15.908 18.9123 15.535C18.9123 15.162 18.6099 14.8596 18.2369 14.8596H10.1316Z" fill="black" fill-opacity="0.45"/>
<path d="M14.8597 22.9648C14.8597 24.457 13.65 25.6666 12.1579 25.6666C10.6658 25.6666 9.45615 24.457 9.45615 22.9648C9.45615 21.4727 10.6658 20.2631 12.1579 20.2631C13.65 20.2631 14.8597 21.4727 14.8597 22.9648Z" fill="#0062E1"/>
<path d="M14.8597 22.9648C14.8597 24.457 13.65 25.6666 12.1579 25.6666C10.6658 25.6666 9.45615 24.457 9.45615 22.9648C9.45615 21.4727 10.6658 20.2631 12.1579 20.2631C13.65 20.2631 14.8597 21.4727 14.8597 22.9648Z" fill="black" fill-opacity="0.45"/>
<path d="M10.1316 12.1578C9.75855 12.1578 9.45615 12.4602 9.45615 12.8332C9.45615 13.2063 9.75855 13.5087 10.1316 13.5087H22.2895C22.6625 13.5087 22.9649 13.2063 22.9649 12.8332C22.9649 12.4602 22.6625 12.1578 22.2895 12.1578H10.1316Z" fill="#0062E1"/>
<path d="M10.1316 12.1578C9.75855 12.1578 9.45615 12.4602 9.45615 12.8332C9.45615 13.2063 9.75855 13.5087 10.1316 13.5087H22.2895C22.6625 13.5087 22.9649 13.2063 22.9649 12.8332C22.9649 12.4602 22.6625 12.1578 22.2895 12.1578H10.1316Z" fill="black" fill-opacity="0.45"/>
<path fill-rule="evenodd" clip-rule="evenodd" d="M8.78071 2.70166C7.66161 2.70166 6.75439 3.60887 6.75439 4.72798V27.6929C6.75439 28.812 7.66161 29.7192 8.78071 29.7192H23.6404C24.7595 29.7192 25.6667 28.812 25.6667 27.6929V4.72798C25.6667 3.60887 24.7595 2.70166 23.6404 2.70166H8.78071ZM8.10527 4.72798C8.10527 4.35494 8.40768 4.05254 8.78071 4.05254H23.6404C24.0134 4.05254 24.3158 4.35494 24.3158 4.72798V27.6929C24.3158 28.0659 24.0134 28.3683 23.6404 28.3683H8.78071C8.40768 28.3683 8.10527 28.0659 8.10527 27.6929V4.72798Z" fill="#0062E1"/>
<path fill-rule="evenodd" clip-rule="evenodd" d="M8.78071 2.70166C7.66161 2.70166 6.75439 3.60887 6.75439 4.72798V27.6929C6.75439 28.812 7.66161 29.7192 8.78071 29.7192H23.6404C24.7595 29.7192 25.6667 28.812 25.6667 27.6929V4.72798C25.6667 3.60887 24.7595 2.70166 23.6404 2.70166H8.78071ZM8.10527 4.72798C8.10527 4.35494 8.40768 4.05254 8.78071 4.05254H23.6404C24.0134 4.05254 24.3158 4.35494 24.3158 4.72798V27.6929C24.3158 28.0659 24.0134 28.3683 23.6404 28.3683H8.78071C8.40768 28.3683 8.10527 28.0659 8.10527 27.6929V4.72798Z" fill="black" fill-opacity="0.45"/>
</svg>
