<svg xmlns="http://www.w3.org/2000/svg" width="35.998" height="35.998" viewBox="0 0 35.998 35.998">
  <g id="Group_1112" data-name="Group 1112" transform="translate(-10512.881 -13971.255)">
    <path class="cls-1"  id="Path_387" data-name="Path 387" d="M10543.523,13976.433a18.023,18.023,0,1,0,5.355,12.7A17.936,17.936,0,0,0,10543.523,13976.433Zm-12.531,28.926a16.1,16.1,0,1,1,15.992-16.217A16.116,16.116,0,0,1,10530.992,14005.358Z" fill="#57b079"/>
    <circle id="Ellipse_143" data-name="Ellipse 143" cx="16.105" cy="16.105" r="16.105" transform="translate(10514.774 13973.149)" fill="#57b079"/>
    <path class="cls-1" id="Path_388" data-name="Path 388" d="M10527.165,13996.859a.946.946,0,0,1-.673-.273l-5.724-5.645a.947.947,0,1,1,1.33-1.349l5.049,4.979,12.5-12.681a.947.947,0,1,1,1.349,1.33l-13.17,13.355a.946.946,0,0,1-.669.282Z" fill="#fff"/>
  </g>
</svg>