<svg width="26" height="26" viewBox="0 0 26 26" fill="none" xmlns="http://www.w3.org/2000/svg">
<path fill-rule="evenodd" clip-rule="evenodd" d="M2.16699 12.9998C2.16699 7.01675 7.01724 2.1665 13.0003 2.1665C18.9834 2.1665 23.8337 7.01675 23.8337 12.9998C23.8337 18.9829 18.9834 23.8332 13.0003 23.8332C7.01724 23.8332 2.16699 18.9829 2.16699 12.9998ZM18.2278 8.79692C18.455 8.9916 18.4813 9.33356 18.2866 9.56069L11.7866 17.144C11.6884 17.2586 11.5469 17.327 11.3961 17.3328C11.2453 17.3386 11.099 17.2812 10.9923 17.1745L7.74231 13.9245C7.53077 13.713 7.53077 13.37 7.74231 13.1585C7.95384 12.947 8.29681 12.947 8.50834 13.1585L11.3447 15.9949L17.4641 8.85567C17.6587 8.62853 18.0007 8.60223 18.2278 8.79692Z" fill="#008533"/>
</svg>
