<svg width="43" height="48" viewBox="0 0 43 48" fill="none" xmlns="http://www.w3.org/2000/svg">
<path opacity="0.4" d="M23.5801 10.9714H33.2898V21.9429L23.5801 10.9714Z" fill="#008533" fill-opacity="0.5"/>
<path d="M23.5807 10.9715H33.2904V39.5932C33.2918 39.7971 33.2521 39.9993 33.1739 40.188C33.0956 40.3767 32.9811 40.548 32.8352 40.6922C32.6894 40.8364 32.5154 40.9505 32.3245 41.0279C32.1337 41.1052 31.9294 41.1444 31.7231 41.1429H1.5673C1.36105 41.1444 1.15669 41.1052 0.96586 41.0279C0.775025 40.9505 0.601024 40.8364 0.455181 40.6922C0.309338 40.548 0.194782 40.3767 0.116534 40.188C0.0382866 39.9993 -0.00143622 39.7971 3.96694e-05 39.5932V1.54976C-0.00143622 1.34584 0.0382866 1.14363 0.116534 0.95495C0.194782 0.766271 0.309338 0.594905 0.455181 0.450709C0.601024 0.306513 0.775025 0.192414 0.96586 0.115051C1.15669 0.0376869 1.36105 -0.00141984 1.5673 3.93814e-05H23.5807V10.9715Z" fill="url(#paint0_linear_478_11327)"/>
<path d="M33.2898 10.9714H23.5801V0L33.2898 10.9714Z" fill="#008533"/>
<path d="M29.1299 13.7142H4.16211V16.0649H29.1299V13.7142Z" fill="white"/>
<path d="M29.1299 18.8077H4.16211V21.1584H29.1299V18.8077Z" fill="white"/>
<path d="M29.1299 23.9025H4.16211V26.2531H29.1299V23.9025Z" fill="white"/>
<path d="M18.0331 28.996H4.16211V31.3466H18.0331V28.996Z" fill="white"/>
<path d="M23.5801 10.9714H33.2898V21.9429L23.5801 10.9714Z" fill="#008533" fill-opacity="0.4"/>
<g filter="url(#filter0_d_478_11327)">
<path d="M31.0914 44C35.5602 44 39.1828 40.4183 39.1828 36C39.1828 31.5817 35.5602 28 31.0914 28C26.6226 28 23 31.5817 23 36C23 40.4183 26.6226 44 31.0914 44Z" fill="#22B573"/>
</g>
<circle cx="31" cy="36" r="4.75" fill="#22B573" stroke="white" stroke-width="0.5"/>
<g clip-path="url(#clip0_478_11327)">
<path d="M31 33.75C31.069 33.75 31.125 33.806 31.125 33.875V36.8232L31.9116 36.0366C31.9604 35.9878 32.0396 35.9878 32.0884 36.0366C32.1372 36.0854 32.1372 36.1646 32.0884 36.2134L31.0884 37.2134C31.0396 37.2622 30.9604 37.2622 30.9116 37.2134L29.9116 36.2134C29.8628 36.1646 29.8628 36.0854 29.9116 36.0366C29.9604 35.9878 30.0396 35.9878 30.0884 36.0366L30.875 36.8232V33.875C30.875 33.806 30.931 33.75 31 33.75Z" fill="white"/>
<path d="M28.75 37.125C28.75 37.056 28.694 37 28.625 37C28.556 37 28.5 37.056 28.5 37.125V37.625C28.5 37.7908 28.5658 37.9497 28.6831 38.0669C28.8003 38.1842 28.9592 38.25 29.125 38.25H32.875C33.0408 38.25 33.1997 38.1842 33.3169 38.0669C33.4342 37.9497 33.5 37.7908 33.5 37.625V37.125C33.5 37.056 33.444 37 33.375 37C33.306 37 33.25 37.056 33.25 37.125V37.625C33.25 37.7245 33.2105 37.8198 33.1402 37.8902C33.0698 37.9605 32.9745 38 32.875 38H29.125C29.0255 38 28.9302 37.9605 28.8598 37.8902C28.7895 37.8198 28.75 37.7245 28.75 37.625V37.125Z" fill="white"/>
</g>
<defs>
<filter id="filter0_d_478_11327" x="21" y="26" width="20.1836" height="20" filterUnits="userSpaceOnUse" color-interpolation-filters="sRGB">
<feFlood flood-opacity="0" result="BackgroundImageFix"/>
<feColorMatrix in="SourceAlpha" type="matrix" values="0 0 0 0 0 0 0 0 0 0 0 0 0 0 0 0 0 0 127 0" result="hardAlpha"/>
<feOffset/>
<feGaussianBlur stdDeviation="1"/>
<feColorMatrix type="matrix" values="0 0 0 0 0.00392157 0 0 0 0 0 0 0 0 0 0.00784314 0 0 0 0.302 0"/>
<feBlend mode="normal" in2="BackgroundImageFix" result="effect1_dropShadow_478_11327"/>
<feBlend mode="normal" in="SourceGraphic" in2="effect1_dropShadow_478_11327" result="shape"/>
</filter>
<linearGradient id="paint0_linear_478_11327" x1="16.6452" y1="0" x2="16.6452" y2="41.1429" gradientUnits="userSpaceOnUse">
<stop stop-color="#B5BD00"/>
<stop offset="1" stop-color="#00AF43"/>
</linearGradient>
<clipPath id="clip0_478_11327">
<rect width="6" height="6" fill="white" transform="translate(28 33)"/>
</clipPath>
</defs>
</svg>
