<svg width="33" height="33" viewBox="0 0 33 33" fill="none" xmlns="http://www.w3.org/2000/svg">
<path d="M12.1578 12.1578C11.4117 12.1578 10.8069 12.7626 10.8069 13.5087C10.8069 14.2547 11.4117 14.8596 12.1578 14.8596C12.9039 14.8596 13.5087 14.2547 13.5087 13.5087C13.5087 12.7626 12.9039 12.1578 12.1578 12.1578Z" fill="#0062E1"/>
<path d="M12.1578 12.1578C11.4117 12.1578 10.8069 12.7626 10.8069 13.5087C10.8069 14.2547 11.4117 14.8596 12.1578 14.8596C12.9039 14.8596 13.5087 14.2547 13.5087 13.5087C13.5087 12.7626 12.9039 12.1578 12.1578 12.1578Z" fill="black" fill-opacity="0.45"/>
<path d="M16.2104 18.9401C15.2384 18.9401 14.2763 19.135 13.3809 19.5134C12.4856 19.8919 11.6753 20.4461 10.9979 21.1433C10.738 21.4108 10.7441 21.8384 11.0117 22.0984C11.2792 22.3583 11.7068 22.3522 11.9668 22.0846C12.5183 21.517 13.178 21.0658 13.9069 20.7577C14.6358 20.4497 15.4191 20.2909 16.2104 20.2909C17.0018 20.2909 17.7851 20.4497 18.514 20.7577C19.2429 21.0658 19.9026 21.517 20.4541 22.0846C20.714 22.3522 21.1416 22.3583 21.4092 22.0984C21.6767 21.8384 21.6829 21.4108 21.4229 21.1433C20.7456 20.4461 19.9353 19.8919 19.0399 19.5134C18.1446 19.135 17.1824 18.9401 16.2104 18.9401Z" fill="#0062E1"/>
<path d="M16.2104 18.9401C15.2384 18.9401 14.2763 19.135 13.3809 19.5134C12.4856 19.8919 11.6753 20.4461 10.9979 21.1433C10.738 21.4108 10.7441 21.8384 11.0117 22.0984C11.2792 22.3583 11.7068 22.3522 11.9668 22.0846C12.5183 21.517 13.178 21.0658 13.9069 20.7577C14.6358 20.4497 15.4191 20.2909 16.2104 20.2909C17.0018 20.2909 17.7851 20.4497 18.514 20.7577C19.2429 21.0658 19.9026 21.517 20.4541 22.0846C20.714 22.3522 21.1416 22.3583 21.4092 22.0984C21.6767 21.8384 21.6829 21.4108 21.4229 21.1433C20.7456 20.4461 19.9353 19.8919 19.0399 19.5134C18.1446 19.135 17.1824 18.9401 16.2104 18.9401Z" fill="black" fill-opacity="0.45"/>
<path d="M18.9122 13.5087C18.9122 12.7626 19.517 12.1578 20.2631 12.1578C21.0091 12.1578 21.6139 12.7626 21.6139 13.5087C21.6139 14.2547 21.0091 14.8596 20.2631 14.8596C19.517 14.8596 18.9122 14.2547 18.9122 13.5087Z" fill="#0062E1"/>
<path d="M18.9122 13.5087C18.9122 12.7626 19.517 12.1578 20.2631 12.1578C21.0091 12.1578 21.6139 12.7626 21.6139 13.5087C21.6139 14.2547 21.0091 14.8596 20.2631 14.8596C19.517 14.8596 18.9122 14.2547 18.9122 13.5087Z" fill="black" fill-opacity="0.45"/>
<path fill-rule="evenodd" clip-rule="evenodd" d="M16.2104 2.70166C8.74974 2.70166 2.70166 8.74974 2.70166 16.2104C2.70166 23.6711 8.74974 29.7192 16.2104 29.7192C23.6711 29.7192 29.7192 23.6711 29.7192 16.2104C29.7192 8.74974 23.6711 2.70166 16.2104 2.70166ZM4.05254 16.2104C4.05254 9.49581 9.49581 4.05254 16.2104 4.05254C22.9251 4.05254 28.3683 9.49581 28.3683 16.2104C28.3683 22.9251 22.9251 28.3683 16.2104 28.3683C9.49581 28.3683 4.05254 22.9251 4.05254 16.2104Z" fill="#0062E1"/>
<path fill-rule="evenodd" clip-rule="evenodd" d="M16.2104 2.70166C8.74974 2.70166 2.70166 8.74974 2.70166 16.2104C2.70166 23.6711 8.74974 29.7192 16.2104 29.7192C23.6711 29.7192 29.7192 23.6711 29.7192 16.2104C29.7192 8.74974 23.6711 2.70166 16.2104 2.70166ZM4.05254 16.2104C4.05254 9.49581 9.49581 4.05254 16.2104 4.05254C22.9251 4.05254 28.3683 9.49581 28.3683 16.2104C28.3683 22.9251 22.9251 28.3683 16.2104 28.3683C9.49581 28.3683 4.05254 22.9251 4.05254 16.2104Z" fill="black" fill-opacity="0.45"/>
</svg>
