<svg width="76" height="76" viewBox="0 0 76 76" fill="none" xmlns="http://www.w3.org/2000/svg">
<path d="M44.0743 32.9228C43.5881 34.0468 42.4692 34.8333 41.1666 34.8333C39.4177 34.8333 37.9999 33.4156 37.9999 31.6667C37.9999 31.0943 38.1517 30.5575 38.4173 30.0942C38.2791 30.087 38.1399 30.0833 37.9999 30.0833C33.6277 30.0833 30.0833 33.6277 30.0833 38C30.0833 42.3723 33.6277 45.9167 37.9999 45.9167C42.3722 45.9167 45.9166 42.3723 45.9166 38C45.9166 36.0678 45.2243 34.2972 44.0743 32.9228Z" fill="url(#paint0_linear_387_11140)"/>
<path fill-rule="evenodd" clip-rule="evenodd" d="M37.9999 22.1667C22.3517 22.1667 13.3401 31.6215 8.3284 36.8798C7.76939 37.4663 7.26014 38.0006 6.797 38.4637C6.17867 39.0821 6.17867 40.0846 6.797 40.7029C7.46064 41.3666 8.13998 42.0741 8.84523 42.8087C14.7498 48.9585 22.4707 57 37.9999 57C53.5291 57 61.25 48.9585 67.1546 42.8087C67.8598 42.0741 68.5392 41.3666 69.2028 40.7029C69.8212 40.0846 69.8212 39.0821 69.2028 38.4637C68.7397 38.0006 68.2304 37.4663 67.6714 36.8798C62.6597 31.6215 53.6482 22.1667 37.9999 22.1667ZM10.1334 39.5789C10.4706 39.926 10.8098 40.2779 11.1522 40.6333C17.0374 46.7404 23.8726 53.8333 37.9999 53.8333C52.1272 53.8333 58.9624 46.7404 64.8476 40.6333C65.19 40.2779 65.5292 39.9259 65.8664 39.5789L65.3573 39.048C61.935 35.4759 57.1043 30.4337 49.9069 27.5633C52.3514 30.3499 53.8332 34.0019 53.8332 38C53.8332 46.7445 46.7444 53.8333 37.9999 53.8333C29.2554 53.8333 22.1666 46.7445 22.1666 38C22.1666 34.0019 23.6485 30.3499 26.0929 27.5633C18.8955 30.4337 14.0648 35.4759 10.6425 39.048L10.1334 39.5789ZM37.9999 25.3333C31.0043 25.3333 25.3333 31.0044 25.3333 38C25.3333 44.9956 31.0043 50.6667 37.9999 50.6667C44.9955 50.6667 50.6666 44.9956 50.6666 38C50.6666 31.0044 44.9955 25.3333 37.9999 25.3333Z" fill="url(#paint1_linear_387_11140)"/>
<defs>
<linearGradient id="paint0_linear_387_11140" x1="7.16522" y1="22.1667" x2="45.3362" y2="26.6142" gradientUnits="userSpaceOnUse">
<stop stop-color="#0089FF"/>
<stop offset="1" stop-color="#0033AA"/>
</linearGradient>
<linearGradient id="paint1_linear_387_11140" x1="7.16522" y1="22.1667" x2="45.3362" y2="26.6142" gradientUnits="userSpaceOnUse">
<stop stop-color="#0089FF"/>
<stop offset="1" stop-color="#0033AA"/>
</linearGradient>
</defs>
</svg>
