<svg width="33" height="35" viewBox="0 0 33 35" fill="none" xmlns="http://www.w3.org/2000/svg">
<path d="M6.07885 4.70166C4.21368 4.70166 2.70166 6.21368 2.70166 8.07885V28.342C2.70166 30.2072 4.21368 31.7192 6.07885 31.7192H15.535C17.4002 31.7192 18.9122 30.2072 18.9122 28.342V24.9648C18.9122 24.5918 18.6098 24.2894 18.2367 24.2894C17.8637 24.2894 17.5613 24.5918 17.5613 24.9648V28.342C17.5613 29.4611 16.6541 30.3683 15.535 30.3683H6.07885C4.95975 30.3683 4.05254 29.4611 4.05254 28.342V8.07885C4.05254 6.95975 4.95975 6.05254 6.07885 6.05254H15.535C16.6541 6.05254 17.5613 6.95975 17.5613 8.07885V8.75429C17.5613 9.12733 17.8637 9.42973 18.2367 9.42973C18.6098 9.42973 18.9122 9.12733 18.9122 8.75429V8.07885C18.9122 6.21368 17.4002 4.70166 15.535 4.70166H6.07885Z" fill="#0062E1"/>
<path d="M6.07885 4.70166C4.21368 4.70166 2.70166 6.21368 2.70166 8.07885V28.342C2.70166 30.2072 4.21368 31.7192 6.07885 31.7192H15.535C17.4002 31.7192 18.9122 30.2072 18.9122 28.342V24.9648C18.9122 24.5918 18.6098 24.2894 18.2367 24.2894C17.8637 24.2894 17.5613 24.5918 17.5613 24.9648V28.342C17.5613 29.4611 16.6541 30.3683 15.535 30.3683H6.07885C4.95975 30.3683 4.05254 29.4611 4.05254 28.342V8.07885C4.05254 6.95975 4.95975 6.05254 6.07885 6.05254H15.535C16.6541 6.05254 17.5613 6.95975 17.5613 8.07885V8.75429C17.5613 9.12733 17.8637 9.42973 18.2367 9.42973C18.6098 9.42973 18.9122 9.12733 18.9122 8.75429V8.07885C18.9122 6.21368 17.4002 4.70166 15.535 4.70166H6.07885Z" fill="black" fill-opacity="0.45"/>
<path d="M12.1578 18.8859C12.1578 18.5128 12.4602 18.2104 12.8332 18.2104H15.535C15.908 18.2104 16.2104 18.5128 16.2104 18.8859C16.2104 19.2589 15.908 19.5613 15.535 19.5613H12.8332C12.4602 19.5613 12.1578 19.2589 12.1578 18.8859Z" fill="#0062E1"/>
<path d="M12.1578 18.8859C12.1578 18.5128 12.4602 18.2104 12.8332 18.2104H15.535C15.908 18.2104 16.2104 18.5128 16.2104 18.8859C16.2104 19.2589 15.908 19.5613 15.535 19.5613H12.8332C12.4602 19.5613 12.1578 19.2589 12.1578 18.8859Z" fill="black" fill-opacity="0.45"/>
<path fill-rule="evenodd" clip-rule="evenodd" d="M27.6929 10.1052C28.812 10.1052 29.7192 11.0124 29.7192 12.1315V21.5876C29.7192 22.7067 28.812 23.6139 27.6929 23.6139H11.4824C10.3633 23.6139 9.45605 22.7067 9.45605 21.5876V12.1315C9.45605 11.0124 10.3633 10.1052 11.4824 10.1052H27.6929ZM11.4824 11.456C11.1093 11.456 10.8069 11.7585 10.8069 12.1315V14.1578H28.3683V12.1315C28.3683 11.7585 28.0659 11.456 27.6929 11.456H11.4824ZM27.6929 22.2631C28.0659 22.2631 28.3683 21.9607 28.3683 21.5876V16.8596H10.8069V21.5876C10.8069 21.9607 11.1093 22.2631 11.4824 22.2631H27.6929Z" fill="#0062E1"/>
<path fill-rule="evenodd" clip-rule="evenodd" d="M27.6929 10.1052C28.812 10.1052 29.7192 11.0124 29.7192 12.1315V21.5876C29.7192 22.7067 28.812 23.6139 27.6929 23.6139H11.4824C10.3633 23.6139 9.45605 22.7067 9.45605 21.5876V12.1315C9.45605 11.0124 10.3633 10.1052 11.4824 10.1052H27.6929ZM11.4824 11.456C11.1093 11.456 10.8069 11.7585 10.8069 12.1315V14.1578H28.3683V12.1315C28.3683 11.7585 28.0659 11.456 27.6929 11.456H11.4824ZM27.6929 22.2631C28.0659 22.2631 28.3683 21.9607 28.3683 21.5876V16.8596H10.8069V21.5876C10.8069 21.9607 11.1093 22.2631 11.4824 22.2631H27.6929Z" fill="black" fill-opacity="0.45"/>
<path d="M10.8069 29.0175C11.553 29.0175 12.1578 28.4126 12.1578 27.6666C12.1578 26.9205 11.553 26.3157 10.8069 26.3157C10.0609 26.3157 9.45605 26.9205 9.45605 27.6666C9.45605 28.4126 10.0609 29.0175 10.8069 29.0175Z" fill="#0062E1"/>
<path d="M10.8069 29.0175C11.553 29.0175 12.1578 28.4126 12.1578 27.6666C12.1578 26.9205 11.553 26.3157 10.8069 26.3157C10.0609 26.3157 9.45605 26.9205 9.45605 27.6666C9.45605 28.4126 10.0609 29.0175 10.8069 29.0175Z" fill="black" fill-opacity="0.45"/>
</svg>
