<svg width="28" height="28" viewBox="0 0 28 28" fill="none" xmlns="http://www.w3.org/2000/svg">
<path fill-rule="evenodd" clip-rule="evenodd" d="M14.0003 3.4884C13.9328 3.46431 13.8598 3.45232 13.7839 3.45495C11.9365 3.51895 10.322 4.30831 9.07748 5.60715C8.01179 6.70499 7.36172 8.2598 7.11558 9.72371C7.11296 9.73933 7.11097 9.75505 7.10962 9.77083L7.00204 11.0313L7.0008 11.0491L6.99695 11.1195C6.99344 11.1803 6.98781 11.2705 6.97966 11.3818C6.96324 11.6062 6.93665 11.9165 6.89613 12.2597C6.8104 12.9859 6.67723 13.7193 6.50426 14.1414C6.35078 14.516 6.08073 14.9584 5.70168 15.5748C5.61626 15.7137 5.52626 15.8601 5.43308 16.0134C4.95511 16.7998 4.40676 17.7526 4.02378 18.8335C3.99495 18.9149 3.96461 18.9969 3.93264 19.0829C3.93263 19.0829 3.93264 19.0829 3.93264 19.0829C3.92807 19.0952 3.92346 19.1076 3.91883 19.12L3.90823 19.1485C3.7217 19.6497 3.48997 20.2722 3.50034 21.0171C3.50922 21.6551 4.02889 22.1675 4.66689 22.1675H10.0866C10.5889 23.8537 12.1504 25.0835 14.0005 25.0835C15.8505 25.0835 17.412 23.8537 17.9143 22.1675H23.3336C23.9716 22.1675 24.4912 21.6551 24.5001 21.0171C24.5105 20.2718 24.2786 19.649 24.0919 19.1475L24.0813 19.119C24.0443 19.0197 24.0095 18.926 23.9766 18.8332C23.6025 17.7782 23.0892 16.8348 22.6181 16.0358C22.4563 15.7613 22.3015 15.507 22.1587 15.2721L22.1579 15.2708C21.8678 14.794 21.6342 14.4092 21.4606 14.0621C21.2879 13.7165 21.1824 13.0601 21.1477 12.3405C21.1437 12.2569 21.1223 12.1782 21.0871 12.1079C21.0561 11.8255 21.0348 11.5726 21.0209 11.3818C21.0127 11.2706 21.0071 11.1803 21.0036 11.1195L20.9997 11.0491L20.9985 11.0313L20.8909 9.77083C20.8899 9.75899 20.8885 9.74719 20.8868 9.73544C20.8865 9.73349 20.8862 9.73153 20.8859 9.72957C20.8856 9.72762 20.8853 9.72566 20.885 9.72371C20.6388 8.25984 19.9888 6.70507 18.9231 5.60724C17.6787 4.30834 16.0641 3.51895 14.2166 3.45495C14.1407 3.45232 14.0677 3.46431 14.0003 3.4884ZM11.3266 22.1675C11.7769 23.1974 12.8052 23.9168 14.0005 23.9168C15.1957 23.9168 16.224 23.1974 16.6743 22.1675H11.3266ZM19.9917 12.5647C19.9686 12.5125 19.9528 12.4561 19.9458 12.3965C19.9028 12.032 19.8747 11.7039 19.8573 11.467C19.8486 11.3485 19.8427 11.2528 19.8389 11.1867L19.8388 11.185L19.8353 11.1217L19.7305 9.89416C19.5101 8.6077 18.9418 7.30081 18.0848 6.41862L18.0819 6.41563C17.0301 5.31727 15.696 4.67356 14.1762 4.62091C14.1146 4.61878 14.0554 4.60714 14.0003 4.58746C13.9451 4.60714 13.886 4.61878 13.8243 4.62091C12.3045 4.67356 10.9704 5.31727 9.91861 6.41563L9.91571 6.41862C9.05875 7.30081 8.49041 8.6077 8.27 9.89416L8.16524 11.1217L8.16178 11.185L8.16168 11.1867C8.15787 11.2528 8.15189 11.3485 8.14322 11.467C8.12588 11.7039 8.09779 12.032 8.05475 12.3965C7.96872 13.1253 7.8229 14.0004 7.5838 14.5838C7.39007 15.0566 7.06889 15.5788 6.71693 16.1511L6.69547 16.186C6.60986 16.3252 6.5214 16.469 6.43004 16.6193C5.95999 17.3927 5.4644 18.2609 5.12345 19.2231C5.0873 19.3252 5.0493 19.4273 5.01311 19.5246L5.01228 19.5268C4.81707 20.0516 4.65978 20.4898 4.66689 21.0009L23.3336 21.0009C23.3407 20.4894 23.1833 20.051 22.9879 19.5259L22.987 19.5236L22.9866 19.5225C22.9506 19.4256 22.913 19.3247 22.877 19.2231C22.5401 18.2729 22.0709 17.4047 21.6131 16.6283C21.4557 16.3613 21.3047 16.1131 21.1612 15.8772L21.1518 15.8618C20.8729 15.4033 20.6146 14.9788 20.4171 14.5838C20.1475 14.0445 20.0349 13.2561 19.9917 12.5647Z" fill="#0062E1"/>
</svg>
