<svg width="32" height="32" viewBox="0 0 32 32" fill="none" xmlns="http://www.w3.org/2000/svg">
<path fill-rule="evenodd" clip-rule="evenodd" d="M2.66675 16.0003C2.66675 8.63653 8.63629 2.66699 16.0001 2.66699C23.3639 2.66699 29.3334 8.63653 29.3334 16.0003C29.3334 23.3641 23.3639 29.3337 16.0001 29.3337C8.63629 29.3337 2.66675 23.3641 2.66675 16.0003ZM16.0001 12.0003C16.7365 12.0003 17.3334 11.4034 17.3334 10.667C17.3334 9.93061 16.7365 9.33366 16.0001 9.33366C15.2637 9.33366 14.6667 9.93061 14.6667 10.667C14.6667 11.4034 15.2637 12.0003 16.0001 12.0003ZM17.3334 16.0003C17.3334 15.2639 16.7365 14.667 16.0001 14.667C15.2637 14.667 14.6667 15.2639 14.6667 16.0003V22.667C14.6667 23.4034 15.2637 24.0003 16.0001 24.0003C16.7365 24.0003 17.3334 23.4034 17.3334 22.667V16.0003Z" fill="#0062E1"/>
</svg>
