<svg width="30" height="27" viewBox="0 0 30 27" fill="none" xmlns="http://www.w3.org/2000/svg">
<path d="M25.4993 16V20H29.4993V22.6667H25.4993V26.6667H22.8327V22.6667H18.8327V20H22.8327V16H25.4993ZM25.51 0C26.2407 0 26.8327 0.593333 26.8327 1.324V13.7893C25.9762 13.4868 25.0744 13.3326 24.166 13.3333V2.66667H2.83268L2.83402 21.3333L15.2233 8.94267C15.4526 8.71264 15.758 8.57431 16.0822 8.55368C16.4063 8.53306 16.7268 8.63156 16.9833 8.83067L17.1073 8.944L21.8354 13.6773C20.8015 13.9924 19.8422 14.5135 19.0153 15.2093C18.1883 15.9051 17.5108 16.7611 17.0237 17.7259C16.5365 18.6906 16.2498 19.744 16.1808 20.8225C16.1117 21.901 16.2618 22.9824 16.622 24.0013L1.48868 24C1.13777 23.9996 0.801345 23.86 0.553335 23.6117C0.305325 23.3635 0.166015 23.0269 0.166016 22.676V1.324C0.168456 0.973838 0.308549 0.63869 0.556033 0.390957C0.803516 0.143224 1.13852 0.00279287 1.48868 0H25.51ZM8.16602 5.33333C8.87326 5.33333 9.55154 5.61428 10.0516 6.11438C10.5517 6.61448 10.8327 7.29276 10.8327 8C10.8327 8.70724 10.5517 9.38552 10.0516 9.88562C9.55154 10.3857 8.87326 10.6667 8.16602 10.6667C7.45877 10.6667 6.78049 10.3857 6.2804 9.88562C5.7803 9.38552 5.49935 8.70724 5.49935 8C5.49935 7.29276 5.7803 6.61448 6.2804 6.11438C6.78049 5.61428 7.45877 5.33333 8.16602 5.33333V5.33333Z" fill="url(#paint0_linear_7266_22160)"/>
<defs>
<linearGradient id="paint0_linear_7266_22160" x1="0.166016" y1="0" x2="30.3282" y2="0.973053" gradientUnits="userSpaceOnUse">
<stop stop-color="#00ACE9"/>
<stop offset="1" stop-color="#0095E9"/>
</linearGradient>
</defs>
</svg>
