<svg width="34" height="34" viewBox="0 0 34 34" fill="none" xmlns="http://www.w3.org/2000/svg">
<path d="M17.2104 4.85381C15.1718 4.85381 13.2499 5.35392 11.5608 6.23816L13.0231 8.61415C13.2069 8.91278 13.1138 9.30386 12.8151 9.48765C12.5165 9.67143 12.1254 9.57834 11.9417 9.27971L10.4679 6.88504C7.34448 8.96054 5.23235 12.4369 5.02825 16.4173H7.75429C8.10495 16.4173 8.38921 16.7016 8.38921 17.0522C8.38921 17.4029 8.10495 17.6871 7.75429 17.6871H5.02825C5.23447 21.7096 7.38897 25.2178 10.5689 27.2859L16.6606 16.7348C16.8359 16.4311 17.2242 16.3271 17.5279 16.5024C17.8316 16.6777 17.9356 17.066 17.7603 17.3697L11.3436 28.4837C11.1683 28.7873 10.78 28.8914 10.4763 28.7161L10.4613 28.7071C10.4444 28.6991 10.4277 28.6903 10.4112 28.6807C6.42288 26.3439 3.74219 22.0114 3.74219 17.0522C3.74219 9.61392 9.77213 3.58398 17.2104 3.58398C24.6487 3.58398 30.6787 9.61392 30.6787 17.0522C30.6787 22.0114 27.998 26.3439 24.0096 28.6807C23.7071 28.8579 23.3181 28.7564 23.1409 28.4538C23.0909 28.3686 23.0631 28.2765 23.0557 28.1842L21.3978 25.4903C21.214 25.1917 21.3071 24.8006 21.6057 24.6168C21.9044 24.433 22.2954 24.5261 22.4792 24.8247L23.953 27.2195C27.0775 25.1432 29.1886 21.6668 29.3926 17.6871H26.6666C26.3159 17.6871 26.0317 17.4029 26.0317 17.0522C26.0317 16.7016 26.3159 16.4173 26.6666 16.4173H29.3926C29.1885 12.4369 27.0764 8.96054 23.953 6.88505L22.4792 9.27974C22.2954 9.57837 21.9044 9.67146 21.6057 9.48768C21.3071 9.30389 21.214 8.91282 21.3978 8.61419L22.8601 6.23817C21.171 5.35393 19.2491 4.85381 17.2104 4.85381Z" fill="#0062E1"/>
<path d="M17.2104 4.85381C15.1718 4.85381 13.2499 5.35392 11.5608 6.23816L13.0231 8.61415C13.2069 8.91278 13.1138 9.30386 12.8151 9.48765C12.5165 9.67143 12.1254 9.57834 11.9417 9.27971L10.4679 6.88504C7.34448 8.96054 5.23235 12.4369 5.02825 16.4173H7.75429C8.10495 16.4173 8.38921 16.7016 8.38921 17.0522C8.38921 17.4029 8.10495 17.6871 7.75429 17.6871H5.02825C5.23447 21.7096 7.38897 25.2178 10.5689 27.2859L16.6606 16.7348C16.8359 16.4311 17.2242 16.3271 17.5279 16.5024C17.8316 16.6777 17.9356 17.066 17.7603 17.3697L11.3436 28.4837C11.1683 28.7873 10.78 28.8914 10.4763 28.7161L10.4613 28.7071C10.4444 28.6991 10.4277 28.6903 10.4112 28.6807C6.42288 26.3439 3.74219 22.0114 3.74219 17.0522C3.74219 9.61392 9.77213 3.58398 17.2104 3.58398C24.6487 3.58398 30.6787 9.61392 30.6787 17.0522C30.6787 22.0114 27.998 26.3439 24.0096 28.6807C23.7071 28.8579 23.3181 28.7564 23.1409 28.4538C23.0909 28.3686 23.0631 28.2765 23.0557 28.1842L21.3978 25.4903C21.214 25.1917 21.3071 24.8006 21.6057 24.6168C21.9044 24.433 22.2954 24.5261 22.4792 24.8247L23.953 27.2195C27.0775 25.1432 29.1886 21.6668 29.3926 17.6871H26.6666C26.3159 17.6871 26.0317 17.4029 26.0317 17.0522C26.0317 16.7016 26.3159 16.4173 26.6666 16.4173H29.3926C29.1885 12.4369 27.0764 8.96054 23.953 6.88505L22.4792 9.27974C22.2954 9.57837 21.9044 9.67146 21.6057 9.48768C21.3071 9.30389 21.214 8.91282 21.3978 8.61419L22.8601 6.23817C21.171 5.35393 19.2491 4.85381 17.2104 4.85381Z" fill="black" fill-opacity="0.45"/>
</svg>
