<svg width="37" height="33" viewBox="0 0 37 33" fill="none" xmlns="http://www.w3.org/2000/svg">
<path d="M10.0789 3.12256C8.21368 3.12256 6.70166 4.63458 6.70166 6.49975V26.7629C6.70166 28.6281 8.21368 30.1401 10.0789 30.1401H19.535C21.4002 30.1401 22.9122 28.6281 22.9122 26.7629V24.7366C22.9122 24.3636 22.6098 24.0612 22.2367 24.0612C21.8637 24.0612 21.5613 24.3636 21.5613 24.7366V26.7629C21.5613 27.882 20.6541 28.7892 19.535 28.7892H10.0789C8.95975 28.7892 8.05254 27.882 8.05254 26.7629V6.49975C8.05254 5.38065 8.95975 4.47344 10.0789 4.47344H19.535C20.6541 4.47344 21.5613 5.38065 21.5613 6.49975V8.52607C21.5613 8.8991 21.8637 9.20151 22.2367 9.20151C22.6098 9.20151 22.9122 8.8991 22.9122 8.52607V6.49975C22.9122 4.63458 21.4002 3.12256 19.535 3.12256H10.0789Z" fill="#0062E1"/>
<path d="M10.0789 3.12256C8.21368 3.12256 6.70166 4.63458 6.70166 6.49975V26.7629C6.70166 28.6281 8.21368 30.1401 10.0789 30.1401H19.535C21.4002 30.1401 22.9122 28.6281 22.9122 26.7629V24.7366C22.9122 24.3636 22.6098 24.0612 22.2367 24.0612C21.8637 24.0612 21.5613 24.3636 21.5613 24.7366V26.7629C21.5613 27.882 20.6541 28.7892 19.535 28.7892H10.0789C8.95975 28.7892 8.05254 27.882 8.05254 26.7629V6.49975C8.05254 5.38065 8.95975 4.47344 10.0789 4.47344H19.535C20.6541 4.47344 21.5613 5.38065 21.5613 6.49975V8.52607C21.5613 8.8991 21.8637 9.20151 22.2367 9.20151C22.6098 9.20151 22.9122 8.8991 22.9122 8.52607V6.49975C22.9122 4.63458 21.4002 3.12256 19.535 3.12256H10.0789Z" fill="black" fill-opacity="0.45"/>
<path d="M16.1578 25.412C16.1578 26.1581 15.553 26.7629 14.8069 26.7629C14.0609 26.7629 13.456 26.1581 13.456 25.412C13.456 24.666 14.0609 24.0612 14.8069 24.0612C15.553 24.0612 16.1578 24.666 16.1578 25.412Z" fill="#0062E1"/>
<path d="M16.1578 25.412C16.1578 26.1581 15.553 26.7629 14.8069 26.7629C14.0609 26.7629 13.456 26.1581 13.456 25.412C13.456 24.666 14.0609 24.0612 14.8069 24.0612C15.553 24.0612 16.1578 24.666 16.1578 25.412Z" fill="black" fill-opacity="0.45"/>
<path d="M27.9151 7.36149C28.3903 7.33432 28.8659 7.40791 29.3107 7.57743C29.7555 7.74695 30.1594 8.00858 30.4959 8.34514C30.8325 8.68171 31.0941 9.08562 31.2636 9.53038C31.4332 9.97515 31.5067 10.4507 31.4796 10.9259C31.4524 11.4011 31.3251 11.8652 31.106 12.2878C30.8932 12.6983 30.5984 13.0605 30.24 13.3523L26.4667 17.1256C25.8347 17.7494 24.9823 18.0992 24.0942 18.0992C23.2061 18.0992 22.3538 17.7494 21.7217 17.1255C21.4562 16.8635 21.4535 16.4358 21.7155 16.1703C21.9776 15.9049 22.4052 15.9021 22.6707 16.1641C23.0499 16.5385 23.5614 16.7484 24.0942 16.7484C24.6264 16.7484 25.1371 16.539 25.5162 16.1656L29.3105 12.3713C29.3287 12.3531 29.3479 12.3359 29.3681 12.32C29.5917 12.1423 29.7753 11.9195 29.9068 11.6659C30.0382 11.4124 30.1146 11.1339 30.1309 10.8488C30.1472 10.5637 30.103 10.2784 30.0013 10.0115C29.8996 9.74464 29.7427 9.5023 29.5407 9.30036C29.3388 9.09842 29.0964 8.94144 28.8296 8.83973C28.5627 8.73802 28.2774 8.69387 27.9922 8.71017C27.7071 8.72646 27.4287 8.80285 27.1751 8.93431C26.9216 9.06577 26.6987 9.24934 26.5211 9.47298C26.5055 9.49265 26.4888 9.51144 26.4711 9.52925L23.9449 12.0689C23.6819 12.3334 23.2542 12.3345 22.9897 12.0714C22.7252 11.8084 22.7241 11.3807 22.9872 11.1162L25.4882 8.60182C25.78 8.24312 26.1425 7.94806 26.5533 7.73507C26.9758 7.51596 27.4399 7.38866 27.9151 7.36149Z" fill="#0062E1"/>
<path d="M27.9151 7.36149C28.3903 7.33432 28.8659 7.40791 29.3107 7.57743C29.7555 7.74695 30.1594 8.00858 30.4959 8.34514C30.8325 8.68171 31.0941 9.08562 31.2636 9.53038C31.4332 9.97515 31.5067 10.4507 31.4796 10.9259C31.4524 11.4011 31.3251 11.8652 31.106 12.2878C30.8932 12.6983 30.5984 13.0605 30.24 13.3523L26.4667 17.1256C25.8347 17.7494 24.9823 18.0992 24.0942 18.0992C23.2061 18.0992 22.3538 17.7494 21.7217 17.1255C21.4562 16.8635 21.4535 16.4358 21.7155 16.1703C21.9776 15.9049 22.4052 15.9021 22.6707 16.1641C23.0499 16.5385 23.5614 16.7484 24.0942 16.7484C24.6264 16.7484 25.1371 16.539 25.5162 16.1656L29.3105 12.3713C29.3287 12.3531 29.3479 12.3359 29.3681 12.32C29.5917 12.1423 29.7753 11.9195 29.9068 11.6659C30.0382 11.4124 30.1146 11.1339 30.1309 10.8488C30.1472 10.5637 30.103 10.2784 30.0013 10.0115C29.8996 9.74464 29.7427 9.5023 29.5407 9.30036C29.3388 9.09842 29.0964 8.94144 28.8296 8.83973C28.5627 8.73802 28.2774 8.69387 27.9922 8.71017C27.7071 8.72646 27.4287 8.80285 27.1751 8.93431C26.9216 9.06577 26.6987 9.24934 26.5211 9.47298C26.5055 9.49265 26.4888 9.51144 26.4711 9.52925L23.9449 12.0689C23.6819 12.3334 23.2542 12.3345 22.9897 12.0714C22.7252 11.8084 22.7241 11.3807 22.9872 11.1162L25.4882 8.60182C25.78 8.24312 26.1425 7.94806 26.5533 7.73507C26.9758 7.51596 27.4399 7.38866 27.9151 7.36149Z" fill="black" fill-opacity="0.45"/>
<path d="M22.1895 13.2992C21.3014 13.2992 20.449 13.649 19.817 14.2729L16.0179 18.072C15.9997 18.0902 15.9826 18.1094 15.9666 18.1295C15.451 18.7787 15.1922 19.5949 15.2395 20.4226C15.2868 21.2503 15.637 22.0317 16.2232 22.6179C16.8094 23.2041 17.5908 23.5542 18.4185 23.6015C19.2462 23.6489 20.0623 23.3901 20.7115 22.8745C20.7312 22.8589 20.75 22.8421 20.7678 22.8244L23.3075 20.2983C23.5719 20.0352 23.5731 19.6076 23.31 19.3431C23.0469 19.0786 22.6193 19.0775 22.3548 19.3405L19.8438 21.8382C19.4589 22.1332 18.9805 22.2806 18.4956 22.2529C17.9989 22.2245 17.5301 22.0144 17.1784 21.6627C16.8267 21.3109 16.6166 20.8421 16.5882 20.3455C16.5605 19.8608 16.7077 19.3827 17.0024 18.9979L20.7674 15.2329C21.1465 14.8595 21.6573 14.6501 22.1895 14.6501C22.7223 14.6501 23.2337 14.86 23.613 15.2343C23.8784 15.4964 24.3061 15.4936 24.5681 15.2281C24.8302 14.9626 24.8274 14.535 24.5619 14.2729C23.9299 13.649 23.0776 13.2992 22.1895 13.2992Z" fill="#0062E1"/>
<path d="M22.1895 13.2992C21.3014 13.2992 20.449 13.649 19.817 14.2729L16.0179 18.072C15.9997 18.0902 15.9826 18.1094 15.9666 18.1295C15.451 18.7787 15.1922 19.5949 15.2395 20.4226C15.2868 21.2503 15.637 22.0317 16.2232 22.6179C16.8094 23.2041 17.5908 23.5542 18.4185 23.6015C19.2462 23.6489 20.0623 23.3901 20.7115 22.8745C20.7312 22.8589 20.75 22.8421 20.7678 22.8244L23.3075 20.2983C23.5719 20.0352 23.5731 19.6076 23.31 19.3431C23.0469 19.0786 22.6193 19.0775 22.3548 19.3405L19.8438 21.8382C19.4589 22.1332 18.9805 22.2806 18.4956 22.2529C17.9989 22.2245 17.5301 22.0144 17.1784 21.6627C16.8267 21.3109 16.6166 20.8421 16.5882 20.3455C16.5605 19.8608 16.7077 19.3827 17.0024 18.9979L20.7674 15.2329C21.1465 14.8595 21.6573 14.6501 22.1895 14.6501C22.7223 14.6501 23.2337 14.86 23.613 15.2343C23.8784 15.4964 24.3061 15.4936 24.5681 15.2281C24.8302 14.9626 24.8274 14.535 24.5619 14.2729C23.9299 13.649 23.0776 13.2992 22.1895 13.2992Z" fill="black" fill-opacity="0.45"/>
</svg>
