<svg width="33" height="35" viewBox="0 0 33 35" fill="none" xmlns="http://www.w3.org/2000/svg">
<path d="M2.70166 6.72798C2.70166 5.60887 3.60887 4.70166 4.72798 4.70166H19.5876C20.7067 4.70166 21.6139 5.60887 21.6139 6.72798V7.40341C21.6139 7.77645 21.3115 8.07885 20.9385 8.07885C20.5655 8.07885 20.2631 7.77645 20.2631 7.40341V6.72798C20.2631 6.35494 19.9607 6.05254 19.5876 6.05254H4.72798C4.35494 6.05254 4.05254 6.35494 4.05254 6.72798V29.6929C4.05254 30.0659 4.35494 30.3683 4.72798 30.3683H19.5876C19.9607 30.3683 20.2631 30.0659 20.2631 29.6929V19.5613C20.2631 19.1883 20.5655 18.8859 20.9385 18.8859C21.3115 18.8859 21.6139 19.1883 21.6139 19.5613V29.6929C21.6139 30.812 20.7067 31.7192 19.5876 31.7192H4.72798C3.60887 31.7192 2.70166 30.812 2.70166 29.6929V6.72798Z" fill="#0062E1"/>
<path d="M2.70166 6.72798C2.70166 5.60887 3.60887 4.70166 4.72798 4.70166H19.5876C20.7067 4.70166 21.6139 5.60887 21.6139 6.72798V7.40341C21.6139 7.77645 21.3115 8.07885 20.9385 8.07885C20.5655 8.07885 20.2631 7.77645 20.2631 7.40341V6.72798C20.2631 6.35494 19.9607 6.05254 19.5876 6.05254H4.72798C4.35494 6.05254 4.05254 6.35494 4.05254 6.72798V29.6929C4.05254 30.0659 4.35494 30.3683 4.72798 30.3683H19.5876C19.9607 30.3683 20.2631 30.0659 20.2631 29.6929V19.5613C20.2631 19.1883 20.5655 18.8859 20.9385 18.8859C21.3115 18.8859 21.6139 19.1883 21.6139 19.5613V29.6929C21.6139 30.812 20.7067 31.7192 19.5876 31.7192H4.72798C3.60887 31.7192 2.70166 30.812 2.70166 29.6929V6.72798Z" fill="black" fill-opacity="0.45"/>
<path fill-rule="evenodd" clip-rule="evenodd" d="M5.40341 22.9385C5.40341 22.5655 5.70582 22.2631 6.07885 22.2631H18.2368C18.6098 22.2631 18.9122 22.5655 18.9122 22.9385V28.342C18.9122 28.715 18.6098 29.0174 18.2368 29.0174H6.07885C5.70582 29.0174 5.40341 28.715 5.40341 28.342V22.9385ZM6.75429 23.6139V27.6666H17.5613V23.6139H6.75429Z" fill="#0062E1"/>
<path fill-rule="evenodd" clip-rule="evenodd" d="M5.40341 22.9385C5.40341 22.5655 5.70582 22.2631 6.07885 22.2631H18.2368C18.6098 22.2631 18.9122 22.5655 18.9122 22.9385V28.342C18.9122 28.715 18.6098 29.0174 18.2368 29.0174H6.07885C5.70582 29.0174 5.40341 28.715 5.40341 28.342V22.9385ZM6.75429 23.6139V27.6666H17.5613V23.6139H6.75429Z" fill="black" fill-opacity="0.45"/>
<path d="M6.75429 9.42973C6.75429 9.0567 7.0567 8.75429 7.42973 8.75429H16.8859C17.2589 8.75429 17.5613 9.0567 17.5613 9.42973C17.5613 9.80276 17.2589 10.1052 16.8859 10.1052H7.42973C7.0567 10.1052 6.75429 9.80276 6.75429 9.42973Z" fill="#0062E1"/>
<path d="M6.75429 9.42973C6.75429 9.0567 7.0567 8.75429 7.42973 8.75429H16.8859C17.2589 8.75429 17.5613 9.0567 17.5613 9.42973C17.5613 9.80276 17.2589 10.1052 16.8859 10.1052H7.42973C7.0567 10.1052 6.75429 9.80276 6.75429 9.42973Z" fill="black" fill-opacity="0.45"/>
<path d="M6.75429 12.1315C6.75429 11.7585 7.0567 11.456 7.42973 11.456H14.1841C14.5572 11.456 14.8596 11.7585 14.8596 12.1315C14.8596 12.5045 14.5572 12.8069 14.1841 12.8069H7.42973C7.0567 12.8069 6.75429 12.5045 6.75429 12.1315Z" fill="#0062E1"/>
<path d="M6.75429 12.1315C6.75429 11.7585 7.0567 11.456 7.42973 11.456H14.1841C14.5572 11.456 14.8596 11.7585 14.8596 12.1315C14.8596 12.5045 14.5572 12.8069 14.1841 12.8069H7.42973C7.0567 12.8069 6.75429 12.5045 6.75429 12.1315Z" fill="black" fill-opacity="0.45"/>
<path d="M6.75429 14.8332C6.75429 14.4602 7.0567 14.1578 7.42973 14.1578H12.8332C13.2063 14.1578 13.5087 14.4602 13.5087 14.8332C13.5087 15.2063 13.2063 15.5087 12.8332 15.5087H7.42973C7.0567 15.5087 6.75429 15.2063 6.75429 14.8332Z" fill="#0062E1"/>
<path d="M6.75429 14.8332C6.75429 14.4602 7.0567 14.1578 7.42973 14.1578H12.8332C13.2063 14.1578 13.5087 14.4602 13.5087 14.8332C13.5087 15.2063 13.2063 15.5087 12.8332 15.5087H7.42973C7.0567 15.5087 6.75429 15.2063 6.75429 14.8332Z" fill="black" fill-opacity="0.45"/>
<path fill-rule="evenodd" clip-rule="evenodd" d="M25.9028 4.99074C26.2517 4.84541 26.626 4.77059 27.0039 4.77059C27.3819 4.77059 27.7562 4.84541 28.1051 4.99074C28.4534 5.13581 28.7696 5.34828 29.0355 5.61591C29.3033 5.88296 29.5158 6.20019 29.6609 6.54944C29.8063 6.89931 29.8811 7.27445 29.8811 7.65335C29.8811 8.03225 29.8063 8.40739 29.6609 8.75726C29.5157 9.10689 29.3028 9.42442 29.0346 9.69165L17.8498 20.8765C17.7231 21.0032 17.5513 21.0743 17.3722 21.0743H14.1841C13.8111 21.0743 13.5087 20.7719 13.5087 20.3989V17.2108C13.5087 17.0301 13.5811 16.857 13.7097 16.73L24.9736 5.61467C25.2393 5.34761 25.5551 5.13559 25.9028 4.99074ZM28.5575 6.09309L28.078 6.56882C27.9373 6.42706 27.77 6.31455 27.5857 6.23777C27.4013 6.161 27.2036 6.12147 27.0039 6.12147C26.8043 6.12147 26.6065 6.16099 26.4222 6.23777C26.2379 6.31456 26.0705 6.42707 25.9299 6.56882L25.9249 6.57388L25.2666 7.2235L27.4295 9.38639L28.0798 8.73601L28.0809 8.735C28.2233 8.59318 28.3363 8.42462 28.4134 8.23899C28.4905 8.05336 28.5302 7.85433 28.5302 7.65335C28.5302 7.45237 28.4905 7.25334 28.4134 7.06771C28.3363 6.88208 28.2233 6.71352 28.0809 6.5717L28.5575 6.09309ZM14.8596 17.4932L24.305 8.17237L26.4743 10.3416L17.0924 19.7234H17.0441L14.8596 17.5389V17.4932ZM15.1336 19.7234L14.8596 19.4494V19.7234H15.1336Z" fill="#0062E1"/>
<path fill-rule="evenodd" clip-rule="evenodd" d="M25.9028 4.99074C26.2517 4.84541 26.626 4.77059 27.0039 4.77059C27.3819 4.77059 27.7562 4.84541 28.1051 4.99074C28.4534 5.13581 28.7696 5.34828 29.0355 5.61591C29.3033 5.88296 29.5158 6.20019 29.6609 6.54944C29.8063 6.89931 29.8811 7.27445 29.8811 7.65335C29.8811 8.03225 29.8063 8.40739 29.6609 8.75726C29.5157 9.10689 29.3028 9.42442 29.0346 9.69165L17.8498 20.8765C17.7231 21.0032 17.5513 21.0743 17.3722 21.0743H14.1841C13.8111 21.0743 13.5087 20.7719 13.5087 20.3989V17.2108C13.5087 17.0301 13.5811 16.857 13.7097 16.73L24.9736 5.61467C25.2393 5.34761 25.5551 5.13559 25.9028 4.99074ZM28.5575 6.09309L28.078 6.56882C27.9373 6.42706 27.77 6.31455 27.5857 6.23777C27.4013 6.161 27.2036 6.12147 27.0039 6.12147C26.8043 6.12147 26.6065 6.16099 26.4222 6.23777C26.2379 6.31456 26.0705 6.42707 25.9299 6.56882L25.9249 6.57388L25.2666 7.2235L27.4295 9.38639L28.0798 8.73601L28.0809 8.735C28.2233 8.59318 28.3363 8.42462 28.4134 8.23899C28.4905 8.05336 28.5302 7.85433 28.5302 7.65335C28.5302 7.45237 28.4905 7.25334 28.4134 7.06771C28.3363 6.88208 28.2233 6.71352 28.0809 6.5717L28.5575 6.09309ZM14.8596 17.4932L24.305 8.17237L26.4743 10.3416L17.0924 19.7234H17.0441L14.8596 17.5389V17.4932ZM15.1336 19.7234L14.8596 19.4494V19.7234H15.1336Z" fill="black" fill-opacity="0.45"/>
</svg>
