<svg width="33" height="35" viewBox="0 0 33 35" fill="none" xmlns="http://www.w3.org/2000/svg">
<path fill-rule="evenodd" clip-rule="evenodd" d="M20.2631 14.1581C20.2631 15.4041 19.7008 16.5188 18.816 17.2622C19.6861 17.6001 20.4821 18.1426 21.1422 18.8576C21.3271 19.058 21.4991 19.2694 21.6575 19.4902C21.9784 19.168 22.3409 18.9005 22.7321 18.6949C22.0456 18.0767 21.6139 17.181 21.6139 16.1844C21.6139 14.3192 23.126 12.8072 24.9911 12.8072C26.8563 12.8072 28.3683 14.3192 28.3683 16.1844C28.3683 17.181 27.9367 18.0767 27.2502 18.6949C27.6908 18.9265 28.0951 19.2366 28.4444 19.615C29.266 20.5051 29.7192 21.7015 29.7192 22.9388V23.1414C29.7192 23.6084 29.5485 24.0661 29.2296 24.4115C28.9091 24.7587 28.4623 24.9651 27.9838 24.9651H22.7378C22.6329 25.1942 22.4928 25.4071 22.32 25.5942C21.9001 26.0491 21.3185 26.316 20.6995 26.316H11.7214C11.1023 26.316 10.5207 26.0491 10.1008 25.5942C9.92807 25.4071 9.788 25.1942 9.68311 24.9651H4.43702C3.95853 24.9651 3.51173 24.7587 3.19123 24.4115C2.8724 24.0661 2.70166 23.6084 2.70166 23.1414V22.9388C2.70166 21.7015 3.15486 20.5051 3.97647 19.615C4.32578 19.2366 4.73008 18.9265 5.17068 18.6949C4.48417 18.0767 4.05254 17.181 4.05254 16.1844C4.05254 14.3192 5.56456 12.8072 7.42973 12.8072C9.2949 12.8072 10.8069 14.3192 10.8069 16.1844C10.8069 17.181 10.3753 18.0767 9.68878 18.6949C10.0799 18.9005 10.4425 19.168 10.7633 19.4902C10.9218 19.2694 11.0937 19.058 11.2787 18.8576C11.9387 18.1426 12.7348 17.6001 13.6048 17.2622C12.7201 16.5188 12.1578 15.4041 12.1578 14.1581C12.1578 11.9199 13.9722 10.1055 16.2104 10.1055C18.4486 10.1055 20.2631 11.9199 20.2631 14.1581ZM16.2104 11.4563C14.7183 11.4563 13.5087 12.666 13.5087 14.1581C13.5087 15.6502 14.7183 16.8599 16.2104 16.8599C17.7026 16.8599 18.9122 15.6502 18.9122 14.1581C18.9122 12.666 17.7026 11.4563 16.2104 11.4563ZM20.1495 19.7739C19.2189 18.7658 17.9689 18.2107 16.678 18.2107H15.7428C14.452 18.2107 13.2019 18.7658 12.2713 19.7739C11.8108 20.2728 11.448 20.862 11.1987 21.5054C10.9748 22.0832 10.8424 22.7046 10.8131 23.3433C10.809 23.4333 10.8069 23.5236 10.8069 23.6142V23.9182C10.8069 23.9485 10.8081 23.9787 10.8103 24.0085C10.8141 24.058 10.821 24.1068 10.8307 24.1547L10.8317 24.1595C10.8733 24.3592 10.9653 24.5391 11.0935 24.6779C11.2699 24.8691 11.4971 24.9651 11.7214 24.9651H20.6995C20.9238 24.9651 21.151 24.8691 21.3274 24.6779C21.4556 24.5391 21.5476 24.3591 21.5892 24.1594L21.5901 24.1547C21.5998 24.1075 21.6066 24.0593 21.6104 24.0105C21.6127 23.98 21.6139 23.9492 21.6139 23.9182V23.6142C21.6139 23.5236 21.6119 23.4333 21.6077 23.3433C21.5459 21.9933 21.0236 20.7208 20.1495 19.7739ZM7.42973 14.1581C6.31063 14.1581 5.40341 15.0653 5.40341 16.1844C5.40341 17.3035 6.31063 18.2107 7.42973 18.2107C8.54883 18.2107 9.45605 17.3035 9.45605 16.1844C9.45605 15.0653 8.54883 14.1581 7.42973 14.1581ZM22.9572 23.2823L22.9648 23.6142H27.9838C28.0676 23.6142 28.16 23.5787 28.237 23.4952C28.3157 23.4099 28.3683 23.2835 28.3683 23.1414V22.9388C28.3683 22.0264 28.0333 21.1613 27.4518 20.5313C26.8719 19.9032 26.0976 19.5616 25.3029 19.5616H24.6794C23.8846 19.5616 23.1103 19.9032 22.5305 20.5313C22.472 20.5947 22.4159 20.6605 22.3625 20.7285C22.7128 21.5255 22.9165 22.3929 22.9572 23.2823ZM24.9911 18.2107C26.1102 18.2107 27.0175 17.3035 27.0175 16.1844C27.0175 15.0653 26.1102 14.1581 24.9911 14.1581C23.872 14.1581 22.9648 15.0653 22.9648 16.1844C22.9648 17.3035 23.872 18.2107 24.9911 18.2107ZM9.89037 20.5313C9.94889 20.5947 10.0049 20.6605 10.0584 20.7285C9.70805 21.5255 9.50433 22.3929 9.46364 23.2823C9.45859 23.3926 9.45605 23.5033 9.45605 23.6142H4.43702C4.35329 23.6142 4.2609 23.5787 4.18386 23.4952C4.10513 23.4099 4.05254 23.2835 4.05254 23.1414V22.9388C4.05254 22.0264 4.38759 21.1613 4.96909 20.5313C5.54892 19.9032 6.32322 19.5616 7.11799 19.5616H7.74147C8.53624 19.5616 9.31054 19.9032 9.89037 20.5313Z" fill="#0062E1"/>
<path fill-rule="evenodd" clip-rule="evenodd" d="M20.2631 14.1581C20.2631 15.4041 19.7008 16.5188 18.816 17.2622C19.6861 17.6001 20.4821 18.1426 21.1422 18.8576C21.3271 19.058 21.4991 19.2694 21.6575 19.4902C21.9784 19.168 22.3409 18.9005 22.7321 18.6949C22.0456 18.0767 21.6139 17.181 21.6139 16.1844C21.6139 14.3192 23.126 12.8072 24.9911 12.8072C26.8563 12.8072 28.3683 14.3192 28.3683 16.1844C28.3683 17.181 27.9367 18.0767 27.2502 18.6949C27.6908 18.9265 28.0951 19.2366 28.4444 19.615C29.266 20.5051 29.7192 21.7015 29.7192 22.9388V23.1414C29.7192 23.6084 29.5485 24.0661 29.2296 24.4115C28.9091 24.7587 28.4623 24.9651 27.9838 24.9651H22.7378C22.6329 25.1942 22.4928 25.4071 22.32 25.5942C21.9001 26.0491 21.3185 26.316 20.6995 26.316H11.7214C11.1023 26.316 10.5207 26.0491 10.1008 25.5942C9.92807 25.4071 9.788 25.1942 9.68311 24.9651H4.43702C3.95853 24.9651 3.51173 24.7587 3.19123 24.4115C2.8724 24.0661 2.70166 23.6084 2.70166 23.1414V22.9388C2.70166 21.7015 3.15486 20.5051 3.97647 19.615C4.32578 19.2366 4.73008 18.9265 5.17068 18.6949C4.48417 18.0767 4.05254 17.181 4.05254 16.1844C4.05254 14.3192 5.56456 12.8072 7.42973 12.8072C9.2949 12.8072 10.8069 14.3192 10.8069 16.1844C10.8069 17.181 10.3753 18.0767 9.68878 18.6949C10.0799 18.9005 10.4425 19.168 10.7633 19.4902C10.9218 19.2694 11.0937 19.058 11.2787 18.8576C11.9387 18.1426 12.7348 17.6001 13.6048 17.2622C12.7201 16.5188 12.1578 15.4041 12.1578 14.1581C12.1578 11.9199 13.9722 10.1055 16.2104 10.1055C18.4486 10.1055 20.2631 11.9199 20.2631 14.1581ZM16.2104 11.4563C14.7183 11.4563 13.5087 12.666 13.5087 14.1581C13.5087 15.6502 14.7183 16.8599 16.2104 16.8599C17.7026 16.8599 18.9122 15.6502 18.9122 14.1581C18.9122 12.666 17.7026 11.4563 16.2104 11.4563ZM20.1495 19.7739C19.2189 18.7658 17.9689 18.2107 16.678 18.2107H15.7428C14.452 18.2107 13.2019 18.7658 12.2713 19.7739C11.8108 20.2728 11.448 20.862 11.1987 21.5054C10.9748 22.0832 10.8424 22.7046 10.8131 23.3433C10.809 23.4333 10.8069 23.5236 10.8069 23.6142V23.9182C10.8069 23.9485 10.8081 23.9787 10.8103 24.0085C10.8141 24.058 10.821 24.1068 10.8307 24.1547L10.8317 24.1595C10.8733 24.3592 10.9653 24.5391 11.0935 24.6779C11.2699 24.8691 11.4971 24.9651 11.7214 24.9651H20.6995C20.9238 24.9651 21.151 24.8691 21.3274 24.6779C21.4556 24.5391 21.5476 24.3591 21.5892 24.1594L21.5901 24.1547C21.5998 24.1075 21.6066 24.0593 21.6104 24.0105C21.6127 23.98 21.6139 23.9492 21.6139 23.9182V23.6142C21.6139 23.5236 21.6119 23.4333 21.6077 23.3433C21.5459 21.9933 21.0236 20.7208 20.1495 19.7739ZM7.42973 14.1581C6.31063 14.1581 5.40341 15.0653 5.40341 16.1844C5.40341 17.3035 6.31063 18.2107 7.42973 18.2107C8.54883 18.2107 9.45605 17.3035 9.45605 16.1844C9.45605 15.0653 8.54883 14.1581 7.42973 14.1581ZM22.9572 23.2823L22.9648 23.6142H27.9838C28.0676 23.6142 28.16 23.5787 28.237 23.4952C28.3157 23.4099 28.3683 23.2835 28.3683 23.1414V22.9388C28.3683 22.0264 28.0333 21.1613 27.4518 20.5313C26.8719 19.9032 26.0976 19.5616 25.3029 19.5616H24.6794C23.8846 19.5616 23.1103 19.9032 22.5305 20.5313C22.472 20.5947 22.4159 20.6605 22.3625 20.7285C22.7128 21.5255 22.9165 22.3929 22.9572 23.2823ZM24.9911 18.2107C26.1102 18.2107 27.0175 17.3035 27.0175 16.1844C27.0175 15.0653 26.1102 14.1581 24.9911 14.1581C23.872 14.1581 22.9648 15.0653 22.9648 16.1844C22.9648 17.3035 23.872 18.2107 24.9911 18.2107ZM9.89037 20.5313C9.94889 20.5947 10.0049 20.6605 10.0584 20.7285C9.70805 21.5255 9.50433 22.3929 9.46364 23.2823C9.45859 23.3926 9.45605 23.5033 9.45605 23.6142H4.43702C4.35329 23.6142 4.2609 23.5787 4.18386 23.4952C4.10513 23.4099 4.05254 23.2835 4.05254 23.1414V22.9388C4.05254 22.0264 4.38759 21.1613 4.96909 20.5313C5.54892 19.9032 6.32322 19.5616 7.11799 19.5616H7.74147C8.53624 19.5616 9.31054 19.9032 9.89037 20.5313Z" fill="black" fill-opacity="0.45"/>
</svg>
