<svg width="27" height="27" viewBox="0 0 27 27" fill="none" xmlns="http://www.w3.org/2000/svg">
<path fill-rule="evenodd" clip-rule="evenodd" d="M21 0C20.6318 0 20.3333 0.298477 20.3333 0.666667V1.33333H15.6667V0.666667C15.6667 0.298477 15.3682 0 15 0C14.6318 0 14.3333 0.298477 14.3333 0.666667V1.33333H9.66667V0.666667C9.66667 0.298477 9.36819 0 9 0C8.63181 0 8.33333 0.298477 8.33333 0.666667V1.33333H5C4.46957 1.33333 3.96086 1.54405 3.58579 1.91912C3.21071 2.29419 3 2.8029 3 3.33333V8.4375C2.97384 8.50896 2.95957 8.58614 2.95957 8.66667V12C2.95957 12.3682 3.25805 12.6667 3.62623 12.6667C3.99442 12.6667 4.2929 12.3682 4.2929 12V9.33333H25.6662V19.8773C25.6778 20.6021 25.4023 21.3021 24.8999 21.8247C24.3991 22.3455 23.7134 22.6479 22.9914 22.6667H15C14.6318 22.6667 14.3333 22.9651 14.3333 23.3333C14.3333 23.7015 14.6318 24 15 24H23.0151C24.0917 23.9749 25.1146 23.525 25.861 22.7488C26.6061 21.9739 27.0152 20.9363 26.9996 19.8616L27 3.33333C27 2.8029 26.7893 2.29419 26.4142 1.91912C26.0391 1.54405 25.5304 1.33333 25 1.33333H21.6667V0.666667C21.6667 0.298477 21.3682 0 21 0ZM4.5286 2.86193C4.40357 2.98695 4.33333 3.15652 4.33333 3.33333V8H25.6667V3.33333C25.6667 3.15652 25.5964 2.98695 25.4714 2.86193C25.3464 2.7369 25.1768 2.66667 25 2.66667H21.6667V4.66667C21.6667 5.03486 21.3682 5.33333 21 5.33333C20.6318 5.33333 20.3333 5.03486 20.3333 4.66667V2.66667H15.6667V4.66667C15.6667 5.03486 15.3682 5.33333 15 5.33333C14.6318 5.33333 14.3333 5.03486 14.3333 4.66667V2.66667H9.66667V4.66667C9.66667 5.03486 9.36819 5.33333 9 5.33333C8.63181 5.33333 8.33333 5.03486 8.33333 4.66667V2.66667H5C4.82319 2.66667 4.65362 2.7369 4.5286 2.86193Z" fill="#0062E1"/>
<path d="M7.66667 20C7.66667 20.1768 7.59643 20.3464 7.47141 20.4714L6.13807 21.8047C5.87772 22.0651 5.45561 22.0651 5.19526 21.8047C4.93491 21.5444 4.93491 21.1223 5.19526 20.8619L6.33333 19.7239V16.6667C6.33333 16.2985 6.63181 16 7 16C7.36819 16 7.66667 16.2985 7.66667 16.6667V20Z" fill="#0062E1"/>
<path fill-rule="evenodd" clip-rule="evenodd" d="M13.6667 20C13.6667 16.3181 10.6819 13.3333 7 13.3333C3.3181 13.3333 0.333336 16.3181 0.333336 20C0.333336 23.6819 3.3181 26.6667 7 26.6667C10.6819 26.6667 13.6667 23.6819 13.6667 20ZM7 14.6667C9.94552 14.6667 12.3333 17.0545 12.3333 20C12.3333 22.9455 9.94552 25.3333 7 25.3333C4.05448 25.3333 1.66667 22.9455 1.66667 20C1.66667 17.0545 4.05448 14.6667 7 14.6667Z" fill="#0062E1"/>
</svg>
