<svg width="33" height="33" viewBox="0 0 33 33" fill="none" xmlns="http://www.w3.org/2000/svg">
<path fill-rule="evenodd" clip-rule="evenodd" d="M22.6949 18.9124C20.8297 18.9124 19.3177 20.4244 19.3177 22.2896C19.3177 24.1547 20.8297 25.6668 22.6949 25.6668C24.5601 25.6668 26.0721 24.1547 26.0721 22.2896C26.0721 20.4244 24.5601 18.9124 22.6949 18.9124ZM20.6686 22.2896C20.6686 21.1705 21.5758 20.2633 22.6949 20.2633C23.814 20.2633 24.7212 21.1705 24.7212 22.2896C24.7212 23.4087 23.814 24.3159 22.6949 24.3159C21.5758 24.3159 20.6686 23.4087 20.6686 22.2896Z" fill="#0062E1"/>
<path fill-rule="evenodd" clip-rule="evenodd" d="M22.6949 18.9124C20.8297 18.9124 19.3177 20.4244 19.3177 22.2896C19.3177 24.1547 20.8297 25.6668 22.6949 25.6668C24.5601 25.6668 26.0721 24.1547 26.0721 22.2896C26.0721 20.4244 24.5601 18.9124 22.6949 18.9124ZM20.6686 22.2896C20.6686 21.1705 21.5758 20.2633 22.6949 20.2633C23.814 20.2633 24.7212 21.1705 24.7212 22.2896C24.7212 23.4087 23.814 24.3159 22.6949 24.3159C21.5758 24.3159 20.6686 23.4087 20.6686 22.2896Z" fill="black" fill-opacity="0.45"/>
<path fill-rule="evenodd" clip-rule="evenodd" d="M18.9124 9.45624C18.9124 11.2728 18.016 12.88 16.6414 13.8596C17.9463 14.24 19.155 14.9211 20.1646 15.8602C20.4123 15.2738 20.9904 14.8598 21.6691 14.8598H23.5856C24.4922 14.8598 25.2192 15.5986 25.2192 16.5001V17.2758C25.2192 17.5059 25.4602 17.6331 25.6417 17.5275L26.3087 17.1397C27.0928 16.6839 28.0933 16.9563 28.5431 17.7409L29.5013 19.4122C29.9496 20.194 29.6855 21.1959 28.9041 21.6502L28.2373 22.0378C28.0464 22.1488 28.0464 22.4303 28.2373 22.5413L28.9042 22.929C29.6855 23.3832 29.9497 24.3851 29.5014 25.167L28.5432 26.8383C28.0934 27.6228 27.0929 27.8953 26.3088 27.4394L25.6417 27.0516C25.4602 26.9461 25.2192 27.0732 25.2192 27.3033V28.0791C25.2192 28.9806 24.4922 29.7194 23.5856 29.7194H21.6691C20.7624 29.7194 20.0354 28.9806 20.0354 28.0791V27.3035C20.0354 27.0734 19.7945 26.9463 19.613 27.0518L18.9459 27.4396C18.1618 27.8955 17.1613 27.623 16.7115 26.8385L16.0397 25.6668H7.02466C6.23646 25.6668 5.48054 25.3537 4.92319 24.7963C4.36585 24.239 4.05273 23.483 4.05273 22.6948V22.2896C4.05273 19.9608 4.97784 17.7274 6.62454 16.0807C7.67793 15.0273 8.97141 14.2692 10.3764 13.8596C9.00177 12.88 8.10537 11.2728 8.10537 9.45624C8.10537 6.47197 10.5246 4.05273 13.5089 4.05273C16.4932 4.05273 18.9124 6.47197 18.9124 9.45624ZM9.45624 9.45624C9.45624 7.21804 11.2707 5.40361 13.5089 5.40361C15.7471 5.40361 17.5615 7.21804 17.5615 9.45624C17.5615 11.6945 15.7471 13.5089 13.5089 13.5089C11.2707 13.5089 9.45624 11.6945 9.45624 9.45624ZM7.57976 17.0359C8.97312 15.6425 10.8629 14.8598 12.8334 14.8598H14.1843C16.1548 14.8598 18.0446 15.6425 19.438 17.0359C19.5962 17.1941 19.7466 17.3588 19.8889 17.5292C19.8065 17.5748 19.7025 17.5794 19.613 17.5273L18.946 17.1395C18.1619 16.6837 17.1614 16.9561 16.7116 17.7407L15.7533 19.4119C15.3051 20.1938 15.5692 21.1957 16.3505 21.6499L17.0178 22.0378C17.2087 22.1488 17.2087 22.4303 17.0178 22.5413L16.3505 22.9292C15.8372 23.2276 15.5471 23.7624 15.5355 24.3159H7.02466C6.59474 24.3159 6.18241 24.1451 5.87841 23.8411C5.5744 23.5371 5.40361 23.1248 5.40361 22.6948V22.2896C5.40361 20.3191 6.18639 18.4293 7.57976 17.0359ZM21.3863 16.5001C21.3863 16.3358 21.5173 16.2106 21.6691 16.2106H23.5856C23.7373 16.2106 23.8684 16.3358 23.8684 16.5001V17.2758C23.8684 18.5313 25.2245 19.3327 26.3206 18.6954L26.9877 18.3076C27.1202 18.2306 27.2918 18.2744 27.3712 18.4128L28.3294 20.0841C28.4104 20.2253 28.3605 20.4036 28.2252 20.4823L27.5583 20.87C26.4716 21.5018 26.4716 23.0773 27.5583 23.7091L28.2252 24.0969C28.3605 24.1755 28.4104 24.3539 28.3295 24.4951L27.3713 26.1663C27.2919 26.3048 27.1203 26.3486 26.9877 26.2716L26.3206 25.8837C25.2245 25.2464 23.8684 26.0478 23.8684 27.3033V28.0791C23.8684 28.2434 23.7373 28.3685 23.5856 28.3685H21.6691C21.5173 28.3685 21.3863 28.2434 21.3863 28.0791V27.3035C21.3863 26.048 20.0302 25.2467 18.934 25.8839L18.2669 26.2718C18.1344 26.3488 17.9628 26.305 17.8834 26.1666L16.9252 24.4953C16.8442 24.3541 16.8941 24.1757 17.0294 24.0971L17.6967 23.7091C18.7835 23.0773 18.7835 21.5018 17.6967 20.87L17.0295 20.4821C16.8942 20.4034 16.8443 20.225 16.9253 20.0839L17.8835 18.4126C17.9629 18.2741 18.1345 18.2303 18.267 18.3074L18.934 18.6952C20.0302 19.3325 21.3863 18.5311 21.3863 17.2756V16.5001Z" fill="#0062E1"/>
<path fill-rule="evenodd" clip-rule="evenodd" d="M18.9124 9.45624C18.9124 11.2728 18.016 12.88 16.6414 13.8596C17.9463 14.24 19.155 14.9211 20.1646 15.8602C20.4123 15.2738 20.9904 14.8598 21.6691 14.8598H23.5856C24.4922 14.8598 25.2192 15.5986 25.2192 16.5001V17.2758C25.2192 17.5059 25.4602 17.6331 25.6417 17.5275L26.3087 17.1397C27.0928 16.6839 28.0933 16.9563 28.5431 17.7409L29.5013 19.4122C29.9496 20.194 29.6855 21.1959 28.9041 21.6502L28.2373 22.0378C28.0464 22.1488 28.0464 22.4303 28.2373 22.5413L28.9042 22.929C29.6855 23.3832 29.9497 24.3851 29.5014 25.167L28.5432 26.8383C28.0934 27.6228 27.0929 27.8953 26.3088 27.4394L25.6417 27.0516C25.4602 26.9461 25.2192 27.0732 25.2192 27.3033V28.0791C25.2192 28.9806 24.4922 29.7194 23.5856 29.7194H21.6691C20.7624 29.7194 20.0354 28.9806 20.0354 28.0791V27.3035C20.0354 27.0734 19.7945 26.9463 19.613 27.0518L18.9459 27.4396C18.1618 27.8955 17.1613 27.623 16.7115 26.8385L16.0397 25.6668H7.02466C6.23646 25.6668 5.48054 25.3537 4.92319 24.7963C4.36585 24.239 4.05273 23.483 4.05273 22.6948V22.2896C4.05273 19.9608 4.97784 17.7274 6.62454 16.0807C7.67793 15.0273 8.97141 14.2692 10.3764 13.8596C9.00177 12.88 8.10537 11.2728 8.10537 9.45624C8.10537 6.47197 10.5246 4.05273 13.5089 4.05273C16.4932 4.05273 18.9124 6.47197 18.9124 9.45624ZM9.45624 9.45624C9.45624 7.21804 11.2707 5.40361 13.5089 5.40361C15.7471 5.40361 17.5615 7.21804 17.5615 9.45624C17.5615 11.6945 15.7471 13.5089 13.5089 13.5089C11.2707 13.5089 9.45624 11.6945 9.45624 9.45624ZM7.57976 17.0359C8.97312 15.6425 10.8629 14.8598 12.8334 14.8598H14.1843C16.1548 14.8598 18.0446 15.6425 19.438 17.0359C19.5962 17.1941 19.7466 17.3588 19.8889 17.5292C19.8065 17.5748 19.7025 17.5794 19.613 17.5273L18.946 17.1395C18.1619 16.6837 17.1614 16.9561 16.7116 17.7407L15.7533 19.4119C15.3051 20.1938 15.5692 21.1957 16.3505 21.6499L17.0178 22.0378C17.2087 22.1488 17.2087 22.4303 17.0178 22.5413L16.3505 22.9292C15.8372 23.2276 15.5471 23.7624 15.5355 24.3159H7.02466C6.59474 24.3159 6.18241 24.1451 5.87841 23.8411C5.5744 23.5371 5.40361 23.1248 5.40361 22.6948V22.2896C5.40361 20.3191 6.18639 18.4293 7.57976 17.0359ZM21.3863 16.5001C21.3863 16.3358 21.5173 16.2106 21.6691 16.2106H23.5856C23.7373 16.2106 23.8684 16.3358 23.8684 16.5001V17.2758C23.8684 18.5313 25.2245 19.3327 26.3206 18.6954L26.9877 18.3076C27.1202 18.2306 27.2918 18.2744 27.3712 18.4128L28.3294 20.0841C28.4104 20.2253 28.3605 20.4036 28.2252 20.4823L27.5583 20.87C26.4716 21.5018 26.4716 23.0773 27.5583 23.7091L28.2252 24.0969C28.3605 24.1755 28.4104 24.3539 28.3295 24.4951L27.3713 26.1663C27.2919 26.3048 27.1203 26.3486 26.9877 26.2716L26.3206 25.8837C25.2245 25.2464 23.8684 26.0478 23.8684 27.3033V28.0791C23.8684 28.2434 23.7373 28.3685 23.5856 28.3685H21.6691C21.5173 28.3685 21.3863 28.2434 21.3863 28.0791V27.3035C21.3863 26.048 20.0302 25.2467 18.934 25.8839L18.2669 26.2718C18.1344 26.3488 17.9628 26.305 17.8834 26.1666L16.9252 24.4953C16.8442 24.3541 16.8941 24.1757 17.0294 24.0971L17.6967 23.7091C18.7835 23.0773 18.7835 21.5018 17.6967 20.87L17.0295 20.4821C16.8942 20.4034 16.8443 20.225 16.9253 20.0839L17.8835 18.4126C17.9629 18.2741 18.1345 18.2303 18.267 18.3074L18.934 18.6952C20.0302 19.3325 21.3863 18.5311 21.3863 17.2756V16.5001Z" fill="black" fill-opacity="0.45"/>
</svg>
