<svg width="28" height="24" viewBox="0 0 28 24" fill="none" xmlns="http://www.w3.org/2000/svg">
<path d="M14 15.3333C14.7363 15.3333 15.3333 14.7364 15.3333 14V9.33333C15.3333 8.59695 14.7363 8 14 8C13.2636 8 12.6666 8.59695 12.6666 9.33333V14C12.6666 14.7364 13.2636 15.3333 14 15.3333Z" fill="#0062E1"/>
<path d="M14 20C14.7363 20 15.3333 19.403 15.3333 18.6667C15.3333 17.9303 14.7363 17.3333 14 17.3333C13.2636 17.3333 12.6666 17.9303 12.6666 18.6667C12.6666 19.403 13.2636 20 14 20Z" fill="#0062E1"/>
<path fill-rule="evenodd" clip-rule="evenodd" d="M13.1387 0.229239C13.4009 0.079037 13.6978 0 14 0C14.3021 0 14.5991 0.079024 14.8613 0.229239C15.1235 0.379463 15.3419 0.595636 15.4947 0.85625L15.5003 0.8657L27.1091 21.4245C27.2568 21.6849 27.3342 21.9797 27.3333 22.2791C27.3323 22.5786 27.2532 22.8727 27.1037 23.1323C26.9541 23.3919 26.7394 23.6079 26.4807 23.7589C26.2221 23.91 25.9284 23.9909 25.6289 23.9935L25.623 23.9935H2.37104C2.0715 23.9909 1.77786 23.91 1.51919 23.7589C1.2605 23.6078 1.04581 23.3918 0.896295 23.1323C0.746791 22.8728 0.667599 22.5787 0.666635 22.2791C0.665672 21.9798 0.742836 21.6854 0.890453 21.4251L12.4997 0.865744L13.0802 1.19354L12.5052 0.85625C12.6581 0.595574 12.8765 0.379427 13.1387 0.229239ZM13.6574 1.52727L2.05109 22.0813L2.05038 22.0826C2.01712 22.1412 1.99974 22.2075 1.99996 22.2748C2.00018 22.3422 2.01798 22.4083 2.05163 22.4667C2.08526 22.5251 2.13352 22.5736 2.19159 22.6076C2.24907 22.6411 2.3142 22.6592 2.38069 22.6602H25.6192C25.6857 22.6592 25.7509 22.6411 25.8083 22.6076C25.8665 22.5736 25.9147 22.525 25.9483 22.4667C25.9819 22.4084 25.9997 22.3423 26 22.2748C26.0002 22.2075 25.9828 22.1412 25.9495 22.0826L25.9488 22.0813L14.3425 1.52727C14.3073 1.46868 14.2577 1.42011 14.1985 1.38618C14.1381 1.35155 14.0696 1.33333 14 1.33333C13.9303 1.33333 13.8619 1.35154 13.8014 1.38618C13.7422 1.42014 13.6926 1.46874 13.6574 1.52727Z" fill="#0062E1"/>
</svg>
