<svg width="29" height="23" viewBox="0 0 29 23" fill="none" xmlns="http://www.w3.org/2000/svg">
<path d="M1.99996 3.66671C1.99996 2.56214 2.89539 1.66671 3.99996 1.66671H18.4085C18.9679 1.66671 19.5018 1.90102 19.8805 2.31279L24.1387 6.9424C24.4782 7.31154 24.6666 7.79477 24.6666 8.29632V9.66671C24.6666 10.0349 24.9651 10.3334 25.3333 10.3334C25.7015 10.3334 26 10.0349 26 9.66671V8.29632C26 7.46041 25.6859 6.65502 25.12 6.03978L20.8619 1.41017C20.2307 0.723902 19.3409 0.333374 18.4085 0.333374H3.99996C2.15901 0.333374 0.666626 1.82576 0.666626 3.66671V14.3334C0.666626 16.1743 2.15901 17.6667 3.99996 17.6667H14.6666C15.0348 17.6667 15.3333 17.3682 15.3333 17C15.3333 16.6318 15.0348 16.3334 14.6666 16.3334H3.99996C2.89539 16.3334 1.99996 15.4379 1.99996 14.3334V3.66671Z" fill="#0062E1"/>
<path d="M4.66663 12.3334C4.29844 12.3334 3.99996 12.6319 3.99996 13C3.99996 13.3682 4.29844 13.6667 4.66663 13.6667H15.3333C15.7015 13.6667 16 13.3682 16 13C16 12.6319 15.7015 12.3334 15.3333 12.3334H4.66663Z" fill="#0062E1"/>
<path d="M3.99996 10.3334C3.99996 9.96518 4.29844 9.66671 4.66663 9.66671H18C18.3681 9.66671 18.6666 9.96518 18.6666 10.3334C18.6666 10.7016 18.3681 11 18 11H4.66663C4.29844 11 3.99996 10.7016 3.99996 10.3334Z" fill="#0062E1"/>
<path d="M8.66663 5.66671C8.66663 6.77128 7.7712 7.66671 6.66663 7.66671C5.56206 7.66671 4.66663 6.77128 4.66663 5.66671C4.66663 4.56214 5.56206 3.66671 6.66663 3.66671C7.7712 3.66671 8.66663 4.56214 8.66663 5.66671Z" fill="#0062E1"/>
<path d="M25.4951 17.6667C25.8632 17.6667 26.1617 17.3682 26.1617 17.0001C26.1617 16.6319 25.8632 16.3334 25.4951 16.3334H19.8382C19.47 16.3334 19.1715 16.6319 19.1715 17.0001C19.1715 17.3682 19.47 17.6667 19.8382 17.6667H25.4951Z" fill="#0062E1"/>
<path fill-rule="evenodd" clip-rule="evenodd" d="M16.6666 17C16.6666 13.6863 19.3529 11 22.6666 11C25.9803 11 28.6666 13.6863 28.6666 17C28.6666 20.3137 25.9803 23 22.6666 23C19.3529 23 16.6666 20.3137 16.6666 17ZM22.6666 12.3334C20.0893 12.3334 18 14.4227 18 17C18 19.5774 20.0893 21.6667 22.6666 21.6667C25.244 21.6667 27.3333 19.5774 27.3333 17C27.3333 14.4227 25.244 12.3334 22.6666 12.3334Z" fill="#0062E1"/>
</svg>
