<svg width="33" height="34" viewBox="0 0 33 34" fill="none" xmlns="http://www.w3.org/2000/svg">
<path d="M10.1316 9.05243C9.75855 9.05243 9.45615 9.35484 9.45615 9.72787C9.45615 10.1009 9.75855 10.4033 10.1316 10.4033H15.6297C16.0027 10.4033 16.3051 10.1009 16.3051 9.72787C16.3051 9.35484 16.0027 9.05243 15.6297 9.05243H10.1316Z" fill="#0062E1"/>
<path d="M10.1316 9.05243C9.75855 9.05243 9.45615 9.35484 9.45615 9.72787C9.45615 10.1009 9.75855 10.4033 10.1316 10.4033H15.6297C16.0027 10.4033 16.3051 10.1009 16.3051 9.72787C16.3051 9.35484 16.0027 9.05243 15.6297 9.05243H10.1316Z" fill="black" fill-opacity="0.45"/>
<path d="M10.1316 11.7542C9.75855 11.7542 9.45615 12.0566 9.45615 12.4296C9.45615 12.8027 9.75855 13.1051 10.1316 13.1051H15.6297C16.0027 13.1051 16.3051 12.8027 16.3051 12.4296C16.3051 12.0566 16.0027 11.7542 15.6297 11.7542H10.1316Z" fill="#0062E1"/>
<path d="M10.1316 11.7542C9.75855 11.7542 9.45615 12.0566 9.45615 12.4296C9.45615 12.8027 9.75855 13.1051 10.1316 13.1051H15.6297C16.0027 13.1051 16.3051 12.8027 16.3051 12.4296C16.3051 12.0566 16.0027 11.7542 15.6297 11.7542H10.1316Z" fill="black" fill-opacity="0.45"/>
<path d="M9.45615 15.1314C9.45615 14.7583 9.75855 14.4559 10.1316 14.4559H22.2895C22.6625 14.4559 22.9649 14.7583 22.9649 15.1314C22.9649 15.5044 22.6625 15.8068 22.2895 15.8068H10.1316C9.75855 15.8068 9.45615 15.5044 9.45615 15.1314Z" fill="#0062E1"/>
<path d="M9.45615 15.1314C9.45615 14.7583 9.75855 14.4559 10.1316 14.4559H22.2895C22.6625 14.4559 22.9649 14.7583 22.9649 15.1314C22.9649 15.5044 22.6625 15.8068 22.2895 15.8068H10.1316C9.75855 15.8068 9.45615 15.5044 9.45615 15.1314Z" fill="black" fill-opacity="0.45"/>
<path fill-rule="evenodd" clip-rule="evenodd" d="M10.1316 18.5086C9.75855 18.5086 9.45615 18.811 9.45615 19.184V25.9384C9.45615 26.3114 9.75855 26.6138 10.1316 26.6138H22.2895C22.6625 26.6138 22.9649 26.3114 22.9649 25.9384V19.184C22.9649 18.811 22.6625 18.5086 22.2895 18.5086H10.1316ZM10.807 25.263V19.8595H21.614V25.263H10.807Z" fill="#0062E1"/>
<path fill-rule="evenodd" clip-rule="evenodd" d="M10.1316 18.5086C9.75855 18.5086 9.45615 18.811 9.45615 19.184V25.9384C9.45615 26.3114 9.75855 26.6138 10.1316 26.6138H22.2895C22.6625 26.6138 22.9649 26.3114 22.9649 25.9384V19.184C22.9649 18.811 22.6625 18.5086 22.2895 18.5086H10.1316ZM10.807 25.263V19.8595H21.614V25.263H10.807Z" fill="black" fill-opacity="0.45"/>
<path fill-rule="evenodd" clip-rule="evenodd" d="M25.0732 8.8546C25.4532 9.23461 25.6667 9.75001 25.6667 10.2874V28.6402C25.6667 29.7593 24.7595 30.6665 23.6404 30.6665H8.78071C7.66161 30.6665 6.75439 29.7593 6.75439 28.6402V5.67524C6.75439 4.55614 7.66161 3.64893 8.78071 3.64893H19.0282C19.5656 3.64893 20.081 3.86241 20.461 4.24242L25.0732 8.8546ZM8.10527 5.67524C8.10527 5.30221 8.40768 4.9998 8.78071 4.9998H18.9123V9.4577C18.9123 9.97995 19.3357 10.4033 19.8579 10.4033H24.3158V28.6402C24.3158 29.0132 24.0134 29.3156 23.6404 29.3156H8.78071C8.40768 29.3156 8.10527 29.0132 8.10527 28.6402V5.67524ZM23.3606 9.05243L20.2632 5.95502V9.05243H23.3606Z" fill="#0062E1"/>
<path fill-rule="evenodd" clip-rule="evenodd" d="M25.0732 8.8546C25.4532 9.23461 25.6667 9.75001 25.6667 10.2874V28.6402C25.6667 29.7593 24.7595 30.6665 23.6404 30.6665H8.78071C7.66161 30.6665 6.75439 29.7593 6.75439 28.6402V5.67524C6.75439 4.55614 7.66161 3.64893 8.78071 3.64893H19.0282C19.5656 3.64893 20.081 3.86241 20.461 4.24242L25.0732 8.8546ZM8.10527 5.67524C8.10527 5.30221 8.40768 4.9998 8.78071 4.9998H18.9123V9.4577C18.9123 9.97995 19.3357 10.4033 19.8579 10.4033H24.3158V28.6402C24.3158 29.0132 24.0134 29.3156 23.6404 29.3156H8.78071C8.40768 29.3156 8.10527 29.0132 8.10527 28.6402V5.67524ZM23.3606 9.05243L20.2632 5.95502V9.05243H23.3606Z" fill="black" fill-opacity="0.45"/>
</svg>
