<svg width="33" height="33" viewBox="0 0 33 33" fill="none" xmlns="http://www.w3.org/2000/svg">
<path fill-rule="evenodd" clip-rule="evenodd" d="M2.70166 16.2104C2.70166 8.74974 8.74974 2.70166 16.2104 2.70166C23.6711 2.70166 29.7192 8.74974 29.7192 16.2104C29.7192 23.6711 23.6711 29.7192 16.2104 29.7192C8.74974 29.7192 2.70166 23.6711 2.70166 16.2104ZM16.2104 4.05254C9.49581 4.05254 4.05254 9.49581 4.05254 16.2104C4.05254 19.7833 5.59372 22.9962 8.04756 25.2207L23.402 6.52825C23.4232 6.50246 23.4459 6.47865 23.4699 6.45683C21.444 4.94653 18.9316 4.05254 16.2104 4.05254ZM16.2104 28.3683C13.5543 28.3683 11.0971 27.5166 9.09705 26.0713L24.4459 7.3857C24.4648 7.36269 24.4819 7.33878 24.4973 7.31418C26.879 9.53366 28.3683 12.6981 28.3683 16.2104C28.3683 22.9251 22.9251 28.3683 16.2104 28.3683Z" fill="#0062E1"/>
<path fill-rule="evenodd" clip-rule="evenodd" d="M2.70166 16.2104C2.70166 8.74974 8.74974 2.70166 16.2104 2.70166C23.6711 2.70166 29.7192 8.74974 29.7192 16.2104C29.7192 23.6711 23.6711 29.7192 16.2104 29.7192C8.74974 29.7192 2.70166 23.6711 2.70166 16.2104ZM16.2104 4.05254C9.49581 4.05254 4.05254 9.49581 4.05254 16.2104C4.05254 19.7833 5.59372 22.9962 8.04756 25.2207L23.402 6.52825C23.4232 6.50246 23.4459 6.47865 23.4699 6.45683C21.444 4.94653 18.9316 4.05254 16.2104 4.05254ZM16.2104 28.3683C13.5543 28.3683 11.0971 27.5166 9.09705 26.0713L24.4459 7.3857C24.4648 7.36269 24.4819 7.33878 24.4973 7.31418C26.879 9.53366 28.3683 12.6981 28.3683 16.2104C28.3683 22.9251 22.9251 28.3683 16.2104 28.3683Z" fill="black" fill-opacity="0.45"/>
</svg>
