<svg width="76" height="76" viewBox="0 0 76 76" fill="none" xmlns="http://www.w3.org/2000/svg">
<path fill-rule="evenodd" clip-rule="evenodd" d="M53.5444 17.6032C54.9816 19.0403 55.789 20.9895 55.789 23.022V34.3586H66.8723C67.2922 34.3586 67.695 34.5255 67.9919 34.8224C68.2888 35.1193 68.4557 35.522 68.4557 35.942C68.4557 36.3619 68.2888 36.7646 67.9919 37.0616C67.695 37.3585 67.2922 37.5253 66.8723 37.5253H6.70565C6.28572 37.5253 5.88299 37.3585 5.58606 37.0616C5.28913 36.7646 5.12231 36.3619 5.12231 35.942C5.12231 35.522 5.28913 35.1193 5.58606 34.8224C5.88299 34.5255 6.28572 34.3586 6.70565 34.3586H17.789V23.022C17.789 20.9895 18.5964 19.0403 20.0335 17.6032C21.4707 16.166 23.4199 15.3586 25.4523 15.3586H48.1256C50.1581 15.3586 52.1073 16.166 53.5444 17.6032ZM21.2894 21.2962C21.0649 21.8437 20.9514 22.4303 20.9556 23.022V34.3586H52.6223V23.022C52.6265 22.4303 52.5131 21.8437 52.2886 21.2962C52.0641 20.7487 51.7331 20.2514 51.3147 19.833C50.8963 19.4146 50.3989 19.0835 49.8514 18.859C49.304 18.6345 48.7173 18.5211 48.1256 18.5253H25.4523C24.8606 18.5211 24.274 18.6345 23.7265 18.859C23.1791 19.0835 22.6817 19.4146 22.2633 19.833C21.8449 20.2514 21.5138 20.7487 21.2894 21.2962Z" fill="url(#paint0_linear_387_11139)"/>
<path d="M24.1223 47.0253C22.8556 47.0253 17.789 47.0253 17.789 48.6086C17.789 51.142 20.9556 53.3586 24.1223 53.3586C27.289 53.3586 30.4556 52.7253 30.4556 50.192C30.4556 47.6586 27.289 47.0253 24.1223 47.0253Z" fill="url(#paint1_linear_387_11139)"/>
<path d="M43.1223 50.192C43.1223 53.2003 46.289 53.3586 49.4557 53.3586C52.6223 53.3586 55.789 51.142 55.789 48.6086C55.789 47.0253 50.7223 47.0253 49.4557 47.0253C46.289 47.0253 43.1223 47.1836 43.1223 50.192Z" fill="url(#paint2_linear_387_11139)"/>
<path fill-rule="evenodd" clip-rule="evenodd" d="M36.789 54.9736C39.2301 57.572 42.4992 59.2401 46.0356 59.692C56.9607 59.692 60.824 56.2086 64.434 49.3686C64.8918 48.6728 65.1487 47.8642 65.1767 47.0317C65.2046 46.1993 65.0024 45.3753 64.5923 44.6503C62.3756 40.9136 54.2373 40.692 52.6223 40.692H20.9556C19.214 40.692 11.0756 40.9136 9.01731 44.6503C8.58366 45.3608 8.35423 46.1771 8.35423 47.0095C8.35423 47.8419 8.58366 48.6581 9.01731 49.3686C12.754 56.2086 16.6173 59.692 27.5423 59.692C31.0788 59.2401 34.3478 57.572 36.789 54.9736ZM38.4356 52.187C38.1478 51.9291 37.777 51.7831 37.3906 51.7753H36.1873C35.8787 51.8298 35.5927 51.9728 35.364 52.187C33.3552 54.403 30.6935 55.9224 27.764 56.5253C18.264 56.5253 15.0973 53.8653 11.9306 47.8486C11.4949 47.0284 11.6193 46.6024 11.6826 46.3858C11.6975 46.3349 11.709 46.2955 11.709 46.2653C12.659 44.6503 17.789 43.8586 20.9556 43.8586H52.6223C55.789 43.8586 61.0457 44.6503 62.1223 46.2653C62.2173 46.4236 62.439 46.8353 61.9007 47.8486C58.5123 53.8653 55.5673 56.5253 46.0673 56.5253C43.124 55.935 40.4485 54.4141 38.4356 52.187Z" fill="url(#paint3_linear_387_11139)"/>
<defs>
<linearGradient id="paint0_linear_387_11139" x1="5.95428" y1="15.3586" x2="44.3219" y2="18.8711" gradientUnits="userSpaceOnUse">
<stop stop-color="#FFB84E"/>
<stop offset="1" stop-color="#FF6611"/>
</linearGradient>
<linearGradient id="paint1_linear_387_11139" x1="5.95428" y1="15.3586" x2="44.3219" y2="18.8711" gradientUnits="userSpaceOnUse">
<stop stop-color="#FFB84E"/>
<stop offset="1" stop-color="#FF6611"/>
</linearGradient>
<linearGradient id="paint2_linear_387_11139" x1="5.95428" y1="15.3586" x2="44.3219" y2="18.8711" gradientUnits="userSpaceOnUse">
<stop stop-color="#FFB84E"/>
<stop offset="1" stop-color="#FF6611"/>
</linearGradient>
<linearGradient id="paint3_linear_387_11139" x1="5.95428" y1="15.3586" x2="44.3219" y2="18.8711" gradientUnits="userSpaceOnUse">
<stop stop-color="#FFB84E"/>
<stop offset="1" stop-color="#FF6611"/>
</linearGradient>
</defs>
</svg>
