<svg width="34" height="34" viewBox="0 0 34 34" fill="none" xmlns="http://www.w3.org/2000/svg">
<path fill-rule="evenodd" clip-rule="evenodd" d="M0.333374 16.9999C0.333374 7.79517 7.7953 0.333252 17 0.333252C26.2048 0.333252 33.6667 7.79517 33.6667 16.9999C33.6667 26.2047 26.2048 33.6666 17 33.6666C7.7953 33.6666 0.333374 26.2047 0.333374 16.9999ZM17 7.83325C17.4603 7.83325 17.8334 8.20635 17.8334 8.66659V16.1666H25.3334C25.7936 16.1666 26.1667 16.5397 26.1667 16.9999C26.1667 17.4602 25.7936 17.8333 25.3334 17.8333H17.8334V25.3333C17.8334 25.7935 17.4603 26.1666 17 26.1666C16.5398 26.1666 16.1667 25.7935 16.1667 25.3333V17.8333H8.66671C8.20647 17.8333 7.83337 17.4602 7.83337 16.9999C7.83337 16.5397 8.20647 16.1666 8.66671 16.1666H16.1667V8.66659C16.1667 8.20635 16.5398 7.83325 17 7.83325Z" fill="#0062E1"/>
</svg>
